NotoSansWarangCiti-Regular.ufo
<glyph name="NGAA_wara" format="2">
	<advance width="686"/>
	<unicode hex="118A0"/>
	<note>
		uni118A0
  </note>
	<outline>
		<contour>
			<point x="281" y="0" type="line"/>
			<point x="405" y="0" type="line"/>
			<point x="658" y="710" type="line"/>
			<point x="566" y="710" type="line"/>
			<point x="346" y="91" type="line"/>
			<point x="340" y="91" type="line"/>
			<point x="120" y="710" type="line"/>
			<point x="28" y="710" type="line"/>
		</contour>
	</outline>
</glyph>
<glyph name="A_wara" format="2">
	<advance width="497"/>
	<unicode hex="118A1"/>
	<note>
		uni118A1
  </note>
	<outline>
		<contour>
			<point x="47" y="80" type="line"/>
			<point x="47" y="0" type="line"/>
			<point x="297" y="0" type="line"/>
			<point x="297" y="630" type="line"/>
			<point x="457" y="630" type="line"/>
			<point x="457" y="710" type="line"/>
			<point x="209" y="710" type="line"/>
			<point x="209" y="80" type="line"/>
		</contour>
	</outline>
</glyph>
<glyph name="WI_wara" format="2">
	<advance width="658"/>
	<unicode hex="118A2"/>
	<note>
		uni118A2
  </note>
	<outline>
		<contour>
			<point x="42" y="394" type="line"/>
			<point x="42" y="314" type="line"/>
			<point x="178" y="314" type="line"/>
			<point x="178" y="0" type="line"/>
			<point x="266" y="0" type="line"/>
			<point x="266" y="314" type="line"/>
			<point x="608" y="314" type="line"/>
			<point x="608" y="394" type="line"/>
			<point x="266" y="394" type="line"/>
			<point x="266" y="630" type="line"/>
			<point x="607" y="630" type="line"/>
			<point x="607" y="710" type="line"/>
			<point x="178" y="710" type="line"/>
			<point x="178" y="394" type="line"/>
		</contour>
	</outline>
</glyph>
<glyph name="YA_wara" format="2">
	<advance width="625"/>
	<unicode hex="118A4"/>
	<note>
		uni118A4
  </note>
	<outline>
		<contour>
			<point x="64" y="0" type="line"/>
			<point x="349" y="0" type="line"/>
			<point x="349" y="319" type="line"/>
			<point x="583" y="710" type="line"/>
			<point x="491" y="710" type="line"/>
			<point x="310" y="408" type="line"/>
			<point x="304" y="408" type="line"/>
			<point x="129" y="710" type="line"/>
			<point x="37" y="710" type="line"/>
			<point x="261" y="319" type="line"/>
			<point x="261" y="80" type="line"/>
			<point x="64" y="80" type="line"/>
		</contour>
	</outline>
</glyph>
<glyph name="YO_wara" format="2">
	<advance width="743"/>
	<unicode hex="118A5"/>
	<note>
		uni118A5
  </note>
	<outline>
		<contour>
			<point x="35" y="80" type="line"/>
			<point x="35" y="0" type="line"/>
			<point x="217" y="0" type="line"/>
			<point x="217" y="316" type="line"/>
			<point x="526" y="316" type="line"/>
			<point x="526" y="80" type="line"/>
			<point x="395" y="80" type="line"/>
			<point x="395" y="0" type="line"/>
			<point x="614" y="0" type="line"/>
			<point x="614" y="630" type="line"/>
			<point x="708" y="630" type="line"/>
			<point x="708" y="710" type="line"/>
			<point x="526" y="710" type="line"/>
			<point x="526" y="396" type="line"/>
			<point x="217" y="396" type="line"/>
			<point x="217" y="630" type="line"/>
			<point x="358" y="630" type="line"/>
			<point x="358" y="710" type="line"/>
			<point x="129" y="710" type="line"/>
			<point x="129" y="80" type="line"/>
		</contour>
	</outline>
</glyph>
<glyph name="II_wara" format="2">
	<advance width="671"/>
	<unicode hex="118A6"/>
	<note>
		uni118A6
  </note>
	<outline>
		<contour>
			<point x="38" y="415" type="line"/>
			<point x="38" y="335" type="line"/>
			<point x="173" y="335" type="line"/>
			<point x="173" y="0" type="line"/>
			<point x="619" y="0" type="line"/>
			<point x="619" y="80" type="line"/>
			<point x="261" y="80" type="line"/>
			<point x="261" y="335" type="line"/>
			<point x="619" y="335" type="line"/>
			<point x="619" y="415" type="line"/>
			<point x="261" y="415" type="line"/>
			<point x="261" y="630" type="line"/>
			<point x="619" y="630" type="line"/>
			<point x="619" y="710" type="line"/>
			<point x="173" y="710" type="line"/>
			<point x="173" y="415" type="line"/>
		</contour>
	</outline>
</glyph>
<glyph name="O_wara" format="2">
	<advance width="611"/>
	<unicode hex="118A9"/>
	<note>
		uni118A9
  </note>
	<outline>
		<contour>
			<point x="435" y="630" type="line"/>
			<point x="70" y="71" type="line"/>
			<point x="70" y="0" type="line"/>
			<point x="563" y="0" type="line"/>
			<point x="563" y="80" type="line"/>
			<point x="185" y="80" type="line"/>
			<point x="545" y="639" type="line"/>
			<point x="545" y="710" type="line"/>
			<point x="70" y="710" type="line"/>
			<point x="70" y="630" type="line"/>
		</contour>
	</outline>
</glyph>
<glyph name="ANG_wara" format="2">
	<advance width="639"/>
	<unicode hex="118AA"/>
	<note>
		uni118AA
  </note>
	<outline>
		<contour>
			<point x="464" y="641" type="line"/>
			<point x="464" y="710" type="line"/>
			<point x="102" y="710" type="line"/>
			<point x="102" y="576" type="line"/>
			<point x="182" y="576" type="line"/>
			<point x="182" y="630" type="line"/>
			<point x="364" y="630" type="line"/>
			<point x="174" y="387" type="line"/>
			<point x="231" y="340" type="line"/>
			<point x="278" y="400" type="line"/>
			<point x="295" y="402"/>
			<point x="312" y="403"/>
			<point x="327" y="403" type="curve" smooth="yes"/>
			<point x="430" y="403"/>
			<point x="487" y="353"/>
			<point x="487" y="241" type="curve" smooth="yes"/>
			<point x="487" y="129"/>
			<point x="431" y="75"/>
			<point x="281" y="75" type="curve" smooth="yes"/>
			<point x="205" y="75"/>
			<point x="143" y="90"/>
			<point x="143" y="149" type="curve" smooth="yes"/>
			<point x="143" y="198"/>
			<point x="186" y="226"/>
			<point x="262" y="226" type="curve" smooth="yes"/>
			<point x="346" y="226" type="line"/>
			<point x="346" y="306" type="line"/>
			<point x="262" y="306" type="line" smooth="yes"/>
			<point x="133" y="306"/>
			<point x="55" y="248"/>
			<point x="55" y="150" type="curve" smooth="yes"/>
			<point x="55" y="41"/>
			<point x="144" y="-5"/>
			<point x="281" y="-5" type="curve" smooth="yes"/>
			<point x="466" y="-5"/>
			<point x="575" y="80"/>
			<point x="575" y="250" type="curve" smooth="yes"/>
			<point x="575" y="399"/>
			<point x="498" y="474"/>
			<point x="343" y="474" type="curve" smooth="yes"/>
			<point x="340" y="474"/>
			<point x="336" y="474"/>
			<point x="333" y="474" type="curve"/>
		</contour>
	</outline>
</glyph>
<glyph name="ENY_wara" format="2">
	<advance width="790"/>
	<unicode hex="118AD"/>
	<note>
		uni118AD
  </note>
	<outline>
		<contour>
			<point x="441" y="710" type="line"/>
			<point x="353" y="710" type="line"/>
			<point x="353" y="429" type="line"/>
			<point x="348" y="429" type="line"/>
			<point x="322" y="458"/>
			<point x="282" y="473"/>
			<point x="232" y="473" type="curve" smooth="yes"/>
			<point x="120" y="473"/>
			<point x="40" y="383"/>
			<point x="40" y="237" type="curve" smooth="yes"/>
			<point x="40" y="87"/>
			<point x="126" y="-5"/>
			<point x="240" y="-5" type="curve" smooth="yes"/>
			<point x="308" y="-5"/>
			<point x="367" y="28"/>
			<point x="392" y="95" type="curve"/>
			<point x="398" y="95" type="line"/>
			<point x="423" y="28"/>
			<point x="482" y="-5"/>
			<point x="550" y="-5" type="curve" smooth="yes"/>
			<point x="664" y="-5"/>
			<point x="750" y="87"/>
			<point x="750" y="237" type="curve" smooth="yes"/>
			<point x="750" y="383"/>
			<point x="674" y="473"/>
			<point x="562" y="473" type="curve" smooth="yes"/>
			<point x="512" y="473"/>
			<point x="472" y="458"/>
			<point x="446" y="429" type="curve"/>
			<point x="441" y="429" type="line"/>
		</contour>
		<contour>
			<point x="352" y="349"/>
			<point x="352" y="243" type="curve" smooth="yes"/>
			<point x="352" y="137"/>
			<point x="314" y="75"/>
			<point x="238" y="75" type="curve" smooth="yes"/>
			<point x="166" y="75"/>
			<point x="128" y="129"/>
			<point x="128" y="234" type="curve" smooth="yes"/>
			<point x="128" y="340"/>
			<point x="168" y="393"/>
			<point x="242" y="393" type="curve" smooth="yes"/>
			<point x="314" y="393"/>
		</contour>
		<contour>
			<point x="662" y="234" type="curve" smooth="yes"/>
			<point x="662" y="129"/>
			<point x="624" y="75"/>
			<point x="552" y="75" type="curve" smooth="yes"/>
			<point x="476" y="75"/>
			<point x="438" y="137"/>
			<point x="438" y="243" type="curve" smooth="yes"/>
			<point x="438" y="349"/>
			<point x="476" y="393"/>
			<point x="548" y="393" type="curve" smooth="yes"/>
			<point x="624" y="393"/>
			<point x="662" y="340"/>
		</contour>
	</outline>
</glyph>
<glyph name="UC_wara" format="2">
	<advance width="643"/>
	<unicode hex="118AF"/>
	<note>
		uni118AF
  </note>
	<outline>
		<contour>
			<point x="485" y="284" type="line"/>
			<point x="485" y="-1" type="line"/>
			<point x="573" y="-1" type="line"/>
			<point x="573" y="710" type="line"/>
			<point x="485" y="710" type="line"/>
			<point x="485" y="364" type="line"/>
			<point x="149" y="364" type="line"/>
			<point x="149" y="630" type="line"/>
			<point x="306" y="630" type="line"/>
			<point x="306" y="710" type="line"/>
			<point x="66" y="710" type="line"/>
			<point x="66" y="284" type="line"/>
		</contour>
	</outline>
</glyph>
<glyph name="TTE_wara" format="2">
	<advance width="671"/>
	<unicode hex="118B2"/>
	<note>
		uni118B2
  </note>
	<outline>
		<contour>
			<point x="163" y="80" type="line"/>
			<point x="42" y="80" type="line"/>
			<point x="42" y="0" type="line"/>
			<point x="616" y="0" type="line"/>
			<point x="616" y="199" type="line"/>
			<point x="528" y="199" type="line"/>
			<point x="528" y="80" type="line"/>
			<point x="251" y="80" type="line"/>
			<point x="251" y="710" type="line"/>
			<point x="163" y="710" type="line"/>
		</contour>
	</outline>
</glyph>
<glyph name="AT_wara" format="2">
	<advance width="726"/>
	<unicode hex="118B5"/>
	<note>
		uni118B5
  </note>
	<outline>
		<contour>
			<point x="223" y="635"/>
			<point x="363" y="635" type="curve" smooth="yes"/>
			<point x="503" y="635"/>
			<point x="578" y="533"/>
			<point x="578" y="353" type="curve" smooth="yes"/>
			<point x="578" y="173"/>
			<point x="503" y="75"/>
			<point x="363" y="75" type="curve" smooth="yes"/>
			<point x="223" y="75"/>
			<point x="148" y="173"/>
			<point x="148" y="353" type="curve" smooth="yes"/>
			<point x="148" y="534"/>
		</contour>
		<contour>
			<point x="666" y="113"/>
			<point x="666" y="353" type="curve" smooth="yes"/>
			<point x="666" y="593"/>
			<point x="543" y="715"/>
			<point x="363" y="715" type="curve" smooth="yes"/>
			<point x="183" y="715"/>
			<point x="60" y="593"/>
			<point x="60" y="353" type="curve" smooth="yes"/>
			<point x="60" y="113"/>
			<point x="182" y="-5"/>
			<point x="362" y="-5" type="curve" smooth="yes"/>
			<point x="542" y="-5"/>
		</contour>
	</outline>
</glyph>
<glyph name="AM_wara" format="2">
	<advance width="705"/>
	<unicode hex="118B6"/>
	<note>
		uni118B6
  </note>
	<outline>
		<contour>
			<point x="438" y="600" type="line"/>
			<point x="438" y="237" type="line"/>
			<point x="168" y="431" type="line"/>
			<point x="168" y="437" type="line"/>
		</contour>
		<contour>
			<point x="73" y="80" type="line"/>
			<point x="73" y="0" type="line"/>
			<point x="526" y="0" type="line"/>
			<point x="526" y="70" type="line"/>
			<point x="626" y="-1" type="line"/>
			<point x="680" y="63" type="line"/>
			<point x="526" y="174" type="line"/>
			<point x="526" y="710" type="line"/>
			<point x="454" y="710" type="line"/>
			<point x="94" y="486" type="line"/>
			<point x="94" y="381" type="line"/>
			<point x="438" y="134" type="line"/>
			<point x="438" y="80" type="line"/>
		</contour>
	</outline>
</glyph>
<glyph name="BU_wara" format="2">
	<advance width="736"/>
	<unicode hex="118B7"/>
	<note>
		uni118B7
  </note>
	<outline>
		<contour>
			<point x="59" y="320" type="line"/>
			<point x="321" y="0" type="line"/>
			<point x="409" y="0" type="line"/>
			<point x="669" y="320" type="line"/>
			<point x="669" y="400" type="line"/>
			<point x="409" y="710" type="line"/>
			<point x="321" y="710" type="line"/>
			<point x="59" y="400" type="line"/>
		</contour>
		<contour>
			<point x="589" y="355" type="line"/>
			<point x="367" y="82" type="line"/>
			<point x="139" y="361" type="line"/>
			<point x="363" y="624" type="line"/>
		</contour>
	</outline>
</glyph>
<glyph name="HOLO_wara" format="2">
	<advance width="713"/>
	<unicode hex="118BA"/>
	<note>
		uni118BA
  </note>
	<outline>
		<contour>
			<point x="380" y="405" type="line"/>
			<point x="380" y="485" type="line"/>
			<point x="73" y="485" type="line"/>
			<point x="73" y="405" type="line"/>
			<point x="184" y="405" type="line"/>
			<point x="184" y="399" type="line"/>
			<point x="138" y="361"/>
			<point x="112" y="301"/>
			<point x="112" y="227" type="curve" smooth="yes"/>
			<point x="112" y="74"/>
			<point x="220" y="-5"/>
			<point x="368" y="-5" type="curve" smooth="yes"/>
			<point x="553" y="-5"/>
			<point x="653" y="126"/>
			<point x="653" y="319" type="curve" smooth="yes"/>
			<point x="653" y="544"/>
			<point x="539" y="670"/>
			<point x="307" y="695" type="curve" smooth="yes"/>
			<point x="169" y="710" type="line"/>
			<point x="159" y="626" type="line"/>
			<point x="301" y="610" type="line" smooth="yes"/>
			<point x="476" y="590"/>
			<point x="565" y="496"/>
			<point x="565" y="327" type="curve" smooth="yes"/>
			<point x="565" y="156"/>
			<point x="505" y="75"/>
			<point x="370" y="75" type="curve" smooth="yes"/>
			<point x="263" y="75"/>
			<point x="200" y="134"/>
			<point x="200" y="235" type="curve" smooth="yes"/>
			<point x="200" y="344"/>
			<point x="273" y="385"/>
			<point x="320" y="405" type="curve"/>
		</contour>
	</outline>
</glyph>
<glyph name="HORR_wara" format="2">
	<advance width="590"/>
	<unicode hex="118BB"/>
	<note>
		uni118BB
  </note>
	<outline>
		<contour>
			<point x="156" y="447" type="line"/>
			<point x="189" y="630" type="line"/>
			<point x="500" y="630" type="line"/>
			<point x="500" y="710" type="line"/>
			<point x="114" y="710" type="line"/>
			<point x="47" y="332" type="line"/>
			<point x="117" y="317" type="line"/>
			<point x="153" y="372"/>
			<point x="212" y="405"/>
			<point x="298" y="405" type="curve" smooth="yes"/>
			<point x="414" y="405"/>
			<point x="466" y="349"/>
			<point x="466" y="249" type="curve" smooth="yes"/>
			<point x="466" y="136"/>
			<point x="403" y="75"/>
			<point x="278" y="75" type="curve" smooth="yes"/>
			<point x="209" y="75"/>
			<point x="144" y="98"/>
			<point x="83" y="136" type="curve"/>
			<point x="43" y="60" type="line"/>
			<point x="110" y="17"/>
			<point x="192" y="-5"/>
			<point x="277" y="-5" type="curve" smooth="yes"/>
			<point x="445" y="-5"/>
			<point x="554" y="90"/>
			<point x="554" y="249" type="curve" smooth="yes"/>
			<point x="554" y="396"/>
			<point x="474" y="485"/>
			<point x="314" y="485" type="curve" smooth="yes"/>
			<point x="249" y="485"/>
			<point x="198" y="472"/>
			<point x="161" y="447" type="curve"/>
		</contour>
	</outline>
</glyph>
<glyph name="HAR_wara" format="2">
	<advance width="672"/>
	<unicode hex="118BC"/>
	<note>
		uni118BC
  </note>
	<outline>
		<contour>
			<point x="292" y="630" type="line"/>
			<point x="292" y="0" type="line"/>
			<point x="380" y="0" type="line"/>
			<point x="380" y="630" type="line"/>
			<point x="612" y="630" type="line"/>
			<point x="612" y="710" type="line"/>
			<point x="60" y="710" type="line"/>
			<point x="60" y="630" type="line"/>
		</contour>
	</outline>
</glyph>
<glyph name="ya_wara" format="2">
	<advance width="596"/>
	<unicode hex="118C4"/>
	<note>
		uni118C4
  </note>
	<outline>
		<contour>
			<point x="546" y="452"/>
			<point x="546" y="499" type="curve" smooth="yes"/>
			<point x="546" y="543"/>
			<point x="525" y="565"/>
			<point x="482" y="565" type="curve" smooth="yes"/>
			<point x="436" y="565"/>
			<point x="413" y="533"/>
			<point x="413" y="469" type="curve" smooth="yes"/>
			<point x="413" y="408" type="line"/>
			<point x="388" y="333"/>
			<point x="345" y="288"/>
			<point x="284" y="288" type="curve" smooth="yes"/>
			<point x="226" y="288"/>
			<point x="203" y="321"/>
			<point x="203" y="373" type="curve" smooth="yes"/>
			<point x="203" y="442" type="line" smooth="yes"/>
			<point x="203" y="521"/>
			<point x="158" y="561"/>
			<point x="80" y="561" type="curve" smooth="yes"/>
			<point x="40" y="561" type="line"/>
			<point x="40" y="489" type="line"/>
			<point x="71" y="489" type="line" smooth="yes"/>
			<point x="100" y="489"/>
			<point x="115" y="469"/>
			<point x="115" y="437" type="curve" smooth="yes"/>
			<point x="115" y="359" type="line" smooth="yes"/>
			<point x="115" y="264"/>
			<point x="171" y="216"/>
			<point x="282" y="216" type="curve" smooth="yes"/>
			<point x="347" y="216"/>
			<point x="395" y="243"/>
			<point x="427" y="296" type="curve"/>
			<point x="431" y="296" type="line"/>
			<point x="439" y="245"/>
			<point x="441" y="214"/>
			<point x="441" y="180" type="curve" smooth="yes"/>
			<point x="441" y="107"/>
			<point x="389" y="67"/>
			<point x="286" y="67" type="curve" smooth="yes"/>
			<point x="230" y="67"/>
			<point x="172" y="84"/>
			<point x="113" y="118" type="curve"/>
			<point x="81" y="50" type="line"/>
			<point x="144" y="13"/>
			<point x="214" y="-5"/>
			<point x="293" y="-5" type="curve" smooth="yes"/>
			<point x="444" y="-5"/>
			<point x="519" y="58"/>
			<point x="519" y="183" type="curve" smooth="yes"/>
			<point x="519" y="269"/>
			<point x="512" y="316"/>
			<point x="505" y="382" type="curve"/>
			<point x="532" y="413"/>
		</contour>
	</outline>
</glyph>
<glyph name="yo_wara" format="2">
	<advance width="629"/>
	<unicode hex="118C5"/>
	<note>
		uni118C5
  </note>
	<outline>
		<contour>
			<point x="470" y="122" type="line" smooth="yes"/>
			<point x="471" y="91"/>
			<point x="456" y="72"/>
			<point x="426" y="72" type="curve" smooth="yes"/>
			<point x="380" y="72" type="line"/>
			<point x="380" y="0" type="line"/>
			<point x="434" y="0" type="line" smooth="yes"/>
			<point x="517" y="0"/>
			<point x="554" y="47"/>
			<point x="551" y="132" type="curve" smooth="yes"/>
			<point x="541" y="422" type="line"/>
			<point x="566" y="446"/>
			<point x="579" y="474"/>
			<point x="579" y="505" type="curve" smooth="yes"/>
			<point x="579" y="548"/>
			<point x="559" y="569"/>
			<point x="518" y="569" type="curve" smooth="yes"/>
			<point x="473" y="569"/>
			<point x="451" y="537"/>
			<point x="451" y="472" type="curve"/>
			<point x="169" y="190" type="line"/>
			<point x="159" y="436" type="line" smooth="yes"/>
			<point x="158" y="467"/>
			<point x="174" y="489"/>
			<point x="205" y="489" type="curve" smooth="yes"/>
			<point x="249" y="489" type="line"/>
			<point x="249" y="561" type="line"/>
			<point x="195" y="561" type="line" smooth="yes"/>
			<point x="112" y="561"/>
			<point x="75" y="514"/>
			<point x="78" y="429" type="curve" smooth="yes"/>
			<point x="88" y="139" type="line"/>
			<point x="63" y="115"/>
			<point x="50" y="87"/>
			<point x="50" y="56" type="curve" smooth="yes"/>
			<point x="50" y="13"/>
			<point x="70" y="-8"/>
			<point x="111" y="-8" type="curve" smooth="yes"/>
			<point x="156" y="-8"/>
			<point x="178" y="24"/>
			<point x="178" y="89" type="curve"/>
			<point x="460" y="370" type="line"/>
		</contour>
	</outline>
</glyph>
<glyph name="ii_wara" format="2">
	<advance width="541"/>
	<unicode hex="118C6"/>
	<note>
		uni118C6
  </note>
	<outline>
		<contour>
			<point x="59" y="289" type="line"/>
			<point x="59" y="216" type="line"/>
			<point x="501" y="217" type="line"/>
			<point x="501" y="289" type="line"/>
		</contour>
		<component base="uu_wara" xOffset="-2"/>
	</outline>
</glyph>
<glyph name="uu_wara" format="2">
	<advance width="459"/>
	<unicode hex="118C7"/>
	<note>
		uni118C7
  </note>
	<outline>
		<contour>
			<point x="63" y="456" type="line"/>
			<point x="111" y="476"/>
			<point x="160" y="494"/>
			<point x="214" y="494" type="curve" smooth="yes"/>
			<point x="292" y="494"/>
			<point x="338" y="456"/>
			<point x="330" y="394" type="curve" smooth="yes"/>
			<point x="281" y="0" type="line"/>
			<point x="369" y="0" type="line"/>
			<point x="417" y="390" type="line" smooth="yes"/>
			<point x="432" y="514"/>
			<point x="360" y="566"/>
			<point x="224" y="566" type="curve" smooth="yes"/>
			<point x="136" y="566"/>
			<point x="82" y="544"/>
			<point x="30" y="517" type="curve"/>
		</contour>
	</outline>
</glyph>
<glyph name="e_wara" format="2">
	<advance width="558"/>
	<unicode hex="118C8"/>
	<note>
		uni118C8
  </note>
	<outline>
		<contour>
			<point x="50" y="501" type="line"/>
			<point x="136" y="139" type="line" smooth="yes"/>
			<point x="159" y="43"/>
			<point x="206" y="-5"/>
			<point x="279" y="-5" type="curve" smooth="yes"/>
			<point x="352" y="-5"/>
			<point x="399" y="43"/>
			<point x="422" y="139" type="curve" smooth="yes"/>
			<point x="508" y="501" type="line"/>
			<point x="508" y="561" type="line"/>
			<point x="50" y="561" type="line"/>
		</contour>
		<contour>
			<point x="421" y="489" type="line"/>
			<point x="340" y="134" type="line" smooth="yes"/>
			<point x="330" y="89"/>
			<point x="310" y="67"/>
			<point x="280" y="67" type="curve" smooth="yes"/>
			<point x="249" y="67"/>
			<point x="229" y="89"/>
			<point x="219" y="134" type="curve" smooth="yes"/>
			<point x="138" y="489" type="line"/>
		</contour>
	</outline>
</glyph>
<glyph name="o_wara" format="2">
	<advance width="553"/>
	<unicode hex="118C9"/>
	<note>
		uni118C9
  </note>
	<outline>
		<contour>
			<point x="405" y="420" type="curve" smooth="yes"/>
			<point x="405" y="386"/>
			<point x="377" y="360"/>
			<point x="322" y="342" type="curve" smooth="yes"/>
			<point x="199" y="302" type="line" smooth="yes"/>
			<point x="107" y="272"/>
			<point x="50" y="220"/>
			<point x="50" y="147" type="curve" smooth="yes"/>
			<point x="50" y="46"/>
			<point x="138" y="-5"/>
			<point x="293" y="-5" type="curve" smooth="yes"/>
			<point x="376" y="-5"/>
			<point x="446" y="16"/>
			<point x="503" y="47" type="curve"/>
			<point x="467" y="109" type="line"/>
			<point x="408" y="81"/>
			<point x="352" y="67"/>
			<point x="297" y="67" type="curve" smooth="yes"/>
			<point x="191" y="67"/>
			<point x="138" y="95"/>
			<point x="138" y="146" type="curve" smooth="yes"/>
			<point x="138" y="183"/>
			<point x="170" y="211"/>
			<point x="233" y="232" type="curve" smooth="yes"/>
			<point x="351" y="272" type="line" smooth="yes"/>
			<point x="438" y="301"/>
			<point x="493" y="351"/>
			<point x="493" y="423" type="curve" smooth="yes"/>
			<point x="493" y="518"/>
			<point x="413" y="566"/>
			<point x="272" y="566" type="curve" smooth="yes"/>
			<point x="203" y="566"/>
			<point x="140" y="557"/>
			<point x="83" y="538" type="curve"/>
			<point x="104" y="464" type="line"/>
			<point x="160" y="483"/>
			<point x="215" y="494"/>
			<point x="269" y="494" type="curve" smooth="yes"/>
			<point x="360" y="494"/>
			<point x="405" y="468"/>
		</contour>
	</outline>
</glyph>
<glyph name="ang_wara" format="2">
	<advance width="555"/>
	<unicode hex="118CA"/>
	<note>
		uni118CA
  </note>
	<outline>
		<contour>
			<point x="338" y="67"/>
			<point x="244" y="67" type="curve" smooth="yes"/>
			<point x="165" y="67"/>
			<point x="128" y="80"/>
			<point x="128" y="113" type="curve" smooth="yes"/>
			<point x="128" y="148"/>
			<point x="170" y="165"/>
			<point x="248" y="165" type="curve" smooth="yes"/>
			<point x="318" y="165"/>
			<point x="362" y="152"/>
			<point x="402" y="126" type="curve"/>
			<point x="387" y="84"/>
		</contour>
		<contour>
			<point x="247" y="566" type="curve" smooth="yes"/>
			<point x="200" y="566"/>
			<point x="153" y="560"/>
			<point x="105" y="548" type="curve"/>
			<point x="119" y="482" type="line"/>
			<point x="170" y="490"/>
			<point x="211" y="494"/>
			<point x="241" y="494" type="curve" smooth="yes"/>
			<point x="298" y="494"/>
			<point x="327" y="473"/>
			<point x="327" y="438" type="curve" smooth="yes"/>
			<point x="327" y="396"/>
			<point x="303" y="374"/>
			<point x="255" y="371" type="curve" smooth="yes"/>
			<point x="138" y="364" type="line"/>
			<point x="142" y="292" type="line"/>
			<point x="297" y="299" type="line" smooth="yes"/>
			<point x="377" y="303"/>
			<point x="417" y="268"/>
			<point x="417" y="205" type="curve" smooth="yes"/>
			<point x="417" y="200"/>
			<point x="417" y="194"/>
			<point x="417" y="189" type="curve"/>
			<point x="376" y="218"/>
			<point x="318" y="237"/>
			<point x="239" y="237" type="curve" smooth="yes"/>
			<point x="126" y="237"/>
			<point x="40" y="189"/>
			<point x="40" y="114" type="curve" smooth="yes"/>
			<point x="40" y="31"/>
			<point x="127" y="-5"/>
			<point x="245" y="-5" type="curve" smooth="yes"/>
			<point x="410" y="-5"/>
			<point x="505" y="64"/>
			<point x="505" y="198" type="curve" smooth="yes"/>
			<point x="505" y="289"/>
			<point x="455" y="343"/>
			<point x="377" y="362" type="curve"/>
			<point x="377" y="368" type="line"/>
			<point x="400" y="388"/>
			<point x="415" y="419"/>
			<point x="415" y="452" type="curve" smooth="yes"/>
			<point x="415" y="531"/>
			<point x="351" y="566"/>
		</contour>
	</outline>
</glyph>
<glyph name="ko_wara" format="2">
	<advance width="603"/>
	<unicode hex="118CC"/>
	<note>
		uni118CC
  </note>
	<outline>
		<contour>
			<point x="369" y="196"/>
			<point x="446" y="291"/>
			<point x="504" y="291" type="curve" smooth="yes"/>
			<point x="515" y="291"/>
			<point x="529" y="288"/>
			<point x="548" y="282" type="curve"/>
			<point x="573" y="354" type="line"/>
			<point x="553" y="360"/>
			<point x="534" y="363"/>
			<point x="519" y="363" type="curve" smooth="yes"/>
			<point x="439" y="363"/>
			<point x="372" y="268"/>
			<point x="248" y="268" type="curve" smooth="yes"/>
			<point x="172" y="268"/>
			<point x="128" y="303"/>
			<point x="128" y="381" type="curve" smooth="yes"/>
			<point x="128" y="451"/>
			<point x="164" y="494"/>
			<point x="252" y="494" type="curve" smooth="yes"/>
			<point x="348" y="494"/>
			<point x="396" y="422"/>
			<point x="396" y="296" type="curve" smooth="yes"/>
			<point x="396" y="129"/>
			<point x="349" y="67"/>
			<point x="232" y="67" type="curve" smooth="yes"/>
			<point x="175" y="67"/>
			<point x="124" y="83"/>
			<point x="80" y="112" type="curve"/>
			<point x="47" y="45" type="line"/>
			<point x="99" y="12"/>
			<point x="163" y="-5"/>
			<point x="239" y="-5" type="curve" smooth="yes"/>
			<point x="425" y="-5"/>
			<point x="484" y="111"/>
			<point x="484" y="303" type="curve" smooth="yes"/>
			<point x="484" y="482"/>
			<point x="380" y="566"/>
			<point x="251" y="566" type="curve" smooth="yes"/>
			<point x="126" y="566"/>
			<point x="40" y="495"/>
			<point x="40" y="376" type="curve" smooth="yes"/>
			<point x="40" y="255"/>
			<point x="127" y="196"/>
			<point x="233" y="196" type="curve" smooth="yes"/>
		</contour>
	</outline>
</glyph>
<glyph name="yuj_wara" format="2">
	<advance width="494"/>
	<unicode hex="118CE"/>
	<note>
		uni118CE
  </note>
	<outline>
		<contour>
			<point x="133" y="288" type="line"/>
			<point x="80" y="268"/>
			<point x="40" y="222"/>
			<point x="40" y="150" type="curve" smooth="yes"/>
			<point x="40" y="47"/>
			<point x="121" y="-5"/>
			<point x="274" y="-5" type="curve" smooth="yes"/>
			<point x="341" y="-5"/>
			<point x="397" y="5"/>
			<point x="454" y="26" type="curve"/>
			<point x="426" y="95" type="line"/>
			<point x="385" y="77"/>
			<point x="330" y="67"/>
			<point x="271" y="67" type="curve" smooth="yes"/>
			<point x="172" y="67"/>
			<point x="128" y="97"/>
			<point x="128" y="164" type="curve" smooth="yes"/>
			<point x="128" y="221"/>
			<point x="160" y="258"/>
			<point x="225" y="258" type="curve" smooth="yes"/>
			<point x="372" y="258" type="line"/>
			<point x="372" y="330" type="line"/>
			<point x="224" y="330" type="line" smooth="yes"/>
			<point x="168" y="330"/>
			<point x="140" y="356"/>
			<point x="140" y="407" type="curve" smooth="yes"/>
			<point x="140" y="462"/>
			<point x="176" y="494"/>
			<point x="258" y="494" type="curve" smooth="yes"/>
			<point x="309" y="494"/>
			<point x="361" y="482"/>
			<point x="404" y="469" type="curve"/>
			<point x="428" y="539" type="line"/>
			<point x="380" y="557"/>
			<point x="323" y="566"/>
			<point x="263" y="566" type="curve" smooth="yes"/>
			<point x="122" y="566"/>
			<point x="52" y="505"/>
			<point x="52" y="408" type="curve" smooth="yes"/>
			<point x="52" y="343"/>
			<point x="89" y="313"/>
			<point x="133" y="292" type="curve"/>
		</contour>
	</outline>
</glyph>
<glyph name="uc_wara" format="2">
	<advance width="554"/>
	<unicode hex="118CF"/>
	<note>
		uni118CF
  </note>
	<outline>
		<contour>
			<point x="258" y="489" type="line"/>
			<point x="258" y="561" type="line"/>
			<point x="208" y="561" type="line" smooth="yes"/>
			<point x="99" y="561"/>
			<point x="40" y="508"/>
			<point x="40" y="385" type="curve" smooth="yes"/>
			<point x="40" y="270"/>
			<point x="104" y="217"/>
			<point x="217" y="217" type="curve" smooth="yes"/>
			<point x="304" y="217"/>
			<point x="364" y="243"/>
			<point x="395" y="296" type="curve"/>
			<point x="400" y="296" type="line"/>
			<point x="407" y="254"/>
			<point x="410" y="217"/>
			<point x="410" y="180" type="curve" smooth="yes"/>
			<point x="410" y="107"/>
			<point x="358" y="67"/>
			<point x="255" y="67" type="curve" smooth="yes"/>
			<point x="199" y="67"/>
			<point x="141" y="84"/>
			<point x="82" y="118" type="curve"/>
			<point x="50" y="51" type="line"/>
			<point x="113" y="14"/>
			<point x="183" y="-5"/>
			<point x="262" y="-5" type="curve" smooth="yes"/>
			<point x="413" y="-5"/>
			<point x="488" y="57"/>
			<point x="488" y="182" type="curve" smooth="yes"/>
			<point x="488" y="264"/>
			<point x="482" y="319"/>
			<point x="474" y="382" type="curve"/>
			<point x="501" y="414"/>
			<point x="514" y="453"/>
			<point x="514" y="500" type="curve" smooth="yes"/>
			<point x="514" y="544"/>
			<point x="493" y="566"/>
			<point x="451" y="566" type="curve" smooth="yes"/>
			<point x="405" y="566"/>
			<point x="382" y="534"/>
			<point x="382" y="469" type="curve" smooth="yes"/>
			<point x="382" y="409" type="line"/>
			<point x="357" y="333"/>
			<point x="303" y="289"/>
			<point x="219" y="289" type="curve" smooth="yes"/>
			<point x="159" y="289"/>
			<point x="128" y="324"/>
			<point x="128" y="383" type="curve" smooth="yes"/>
			<point x="128" y="454"/>
			<point x="153" y="489"/>
			<point x="200" y="489" type="curve" smooth="yes"/>
		</contour>
	</outline>
</glyph>
<glyph name="enn_wara" format="2">
	<advance width="676"/>
	<unicode hex="118D0"/>
	<note>
		uni118D0
  </note>
	<outline>
		<contour>
			<point x="171" y="432" type="line" smooth="yes"/>
			<point x="171" y="473"/>
			<point x="192" y="492"/>
			<point x="224" y="492" type="curve" smooth="yes"/>
			<point x="256" y="492"/>
			<point x="272" y="472"/>
			<point x="278" y="430" type="curve" smooth="yes"/>
			<point x="327" y="106" type="line" smooth="yes"/>
			<point x="338" y="36"/>
			<point x="376" y="-4"/>
			<point x="456" y="-4" type="curve" smooth="yes"/>
			<point x="539" y="-4"/>
			<point x="593" y="39"/>
			<point x="593" y="125" type="curve" smooth="yes"/>
			<point x="593" y="463" type="line" smooth="yes"/>
			<point x="593" y="480"/>
			<point x="599" y="489"/>
			<point x="612" y="489" type="curve" smooth="yes"/>
			<point x="636" y="489" type="line"/>
			<point x="636" y="561" type="line"/>
			<point x="596" y="561" type="line" smooth="yes"/>
			<point x="539" y="561"/>
			<point x="505" y="522"/>
			<point x="505" y="443" type="curve" smooth="yes"/>
			<point x="505" y="111" type="line" smooth="yes"/>
			<point x="505" y="82"/>
			<point x="483" y="68"/>
			<point x="457" y="68" type="curve" smooth="yes"/>
			<point x="429" y="68"/>
			<point x="413" y="84"/>
			<point x="409" y="116" type="curve" smooth="yes"/>
			<point x="361" y="457" type="line" smooth="yes"/>
			<point x="351" y="528"/>
			<point x="292" y="564"/>
			<point x="225" y="564" type="curve" smooth="yes"/>
			<point x="144" y="564"/>
			<point x="83" y="511"/>
			<point x="83" y="426" type="curve" smooth="yes"/>
			<point x="83" y="99" type="line" smooth="yes"/>
			<point x="83" y="81"/>
			<point x="77" y="72"/>
			<point x="64" y="72" type="curve" smooth="yes"/>
			<point x="40" y="72" type="line"/>
			<point x="40" y="0" type="line"/>
			<point x="79" y="0" type="line" smooth="yes"/>
			<point x="137" y="0"/>
			<point x="171" y="39"/>
			<point x="171" y="117" type="curve" smooth="yes"/>
		</contour>
	</outline>
</glyph>
<glyph name="odd_wara" format="2">
	<advance width="376"/>
	<unicode hex="118D1"/>
	<note>
		uni118D1
  </note>
	<outline>
		<contour>
			<point x="326" y="571" type="line"/>
			<point x="251" y="571" type="line"/>
			<point x="236" y="434" type="line"/>
			<point x="50" y="361" type="line"/>
			<point x="50" y="0" type="line"/>
			<point x="138" y="0" type="line"/>
			<point x="138" y="306" type="line"/>
			<point x="264" y="357" type="line" smooth="yes"/>
			<point x="305" y="374"/>
			<point x="326" y="403"/>
			<point x="326" y="446" type="curve" smooth="yes"/>
		</contour>
	</outline>
</glyph>
<glyph name="nung_wara" format="2">
	<advance width="683"/>
	<unicode hex="118D3"/>
	<note>
		uni118D3
  </note>
	<outline>
		<contour>
			<point x="123" y="528" type="line"/>
			<point x="50" y="528" type="line"/>
			<point x="50" y="200" type="line"/>
			<point x="138" y="200" type="line"/>
			<point x="138" y="276" type="line"/>
			<point x="145" y="351"/>
			<point x="181" y="395"/>
			<point x="246" y="410" type="curve" smooth="yes"/>
			<point x="301" y="423"/>
			<point x="336" y="433"/>
			<point x="352" y="443" type="curve"/>
			<point x="357" y="443" type="line"/>
			<point x="353" y="239"/>
			<point x="352" y="155"/>
			<point x="352" y="130" type="curve" smooth="yes"/>
			<point x="352" y="40"/>
			<point x="407" y="-5"/>
			<point x="510" y="-5" type="curve" smooth="yes"/>
			<point x="569" y="-5"/>
			<point x="613" y="10"/>
			<point x="643" y="39" type="curve"/>
			<point x="606" y="100" type="line"/>
			<point x="579" y="78"/>
			<point x="548" y="67"/>
			<point x="515" y="67" type="curve" smooth="yes"/>
			<point x="474" y="67"/>
			<point x="441" y="80"/>
			<point x="441" y="123" type="curve" smooth="yes"/>
			<point x="446" y="561" type="line"/>
			<point x="366" y="561" type="line"/>
			<point x="366" y="533"/>
			<point x="328" y="509"/>
			<point x="255" y="489" type="curve" smooth="yes"/>
			<point x="202" y="475"/>
			<point x="164" y="452"/>
			<point x="143" y="421" type="curve"/>
			<point x="138" y="421" type="line"/>
		</contour>
	</outline>
</glyph>
<glyph name="at_wara" format="2">
	<advance width="570"/>
	<unicode hex="118D5"/>
	<note>
		uni118D5
  </note>
	<outline>
		<contour>
			<point x="138" y="319" type="curve"/>
			<point x="149" y="432"/>
			<point x="197" y="494"/>
			<point x="314" y="494" type="curve" smooth="yes"/>
			<point x="369" y="494"/>
			<point x="419" y="483"/>
			<point x="465" y="465" type="curve"/>
			<point x="486" y="536" type="line"/>
			<point x="431" y="556"/>
			<point x="375" y="566"/>
			<point x="316" y="566" type="curve" smooth="yes"/>
			<point x="156" y="566"/>
			<point x="50" y="462"/>
			<point x="50" y="266" type="curve" smooth="yes"/>
			<point x="50" y="91"/>
			<point x="142" y="-5"/>
			<point x="299" y="-5" type="curve" smooth="yes"/>
			<point x="428" y="-5"/>
			<point x="520" y="69"/>
			<point x="520" y="188" type="curve" smooth="yes"/>
			<point x="520" y="305"/>
			<point x="430" y="379"/>
			<point x="304" y="379" type="curve" smooth="yes"/>
			<point x="240" y="379"/>
			<point x="185" y="359"/>
		</contour>
		<contour>
			<point x="138" y="227" type="curve"/>
			<point x="175" y="278"/>
			<point x="227" y="307"/>
			<point x="294" y="307" type="curve" smooth="yes"/>
			<point x="386" y="307"/>
			<point x="432" y="265"/>
			<point x="432" y="187" type="curve" smooth="yes"/>
			<point x="432" y="109"/>
			<point x="386" y="67"/>
			<point x="294" y="67" type="curve" smooth="yes"/>
			<point x="187" y="67"/>
			<point x="145" y="122"/>
		</contour>
	</outline>
</glyph>
<glyph name="bu_wara" format="2">
	<advance width="670"/>
	<unicode hex="118D7"/>
	<note>
		uni118D7
  </note>
	<outline>
		<contour>
			<point x="542" y="286" type="line"/>
			<point x="340" y="72" type="line"/>
			<point x="330" y="72" type="line"/>
			<point x="128" y="286" type="line"/>
			<point x="128" y="295" type="line"/>
			<point x="330" y="509" type="line"/>
			<point x="340" y="509" type="line"/>
			<point x="542" y="295" type="line"/>
		</contour>
		<contour>
			<point x="377" y="0" type="line"/>
			<point x="630" y="258" type="line"/>
			<point x="630" y="323" type="line"/>
			<point x="377" y="581" type="line"/>
			<point x="293" y="581" type="line"/>
			<point x="40" y="323" type="line"/>
			<point x="40" y="258" type="line"/>
			<point x="293" y="0" type="line"/>
		</contour>
	</outline>
</glyph>
<glyph name="pu_wara" format="2">
	<advance width="655"/>
	<unicode hex="118D8"/>
	<note>
		uni118D8
  </note>
	<outline>
		<contour>
			<point x="327" y="-5" type="curve" smooth="yes"/>
			<point x="464" y="-5"/>
			<point x="530" y="55"/>
			<point x="535" y="173" type="curve" smooth="yes"/>
			<point x="545" y="431" type="line" smooth="yes"/>
			<point x="547" y="470"/>
			<point x="564" y="489"/>
			<point x="597" y="489" type="curve" smooth="yes"/>
			<point x="615" y="489" type="line"/>
			<point x="615" y="561" type="line"/>
			<point x="590" y="561" type="line" smooth="yes"/>
			<point x="509" y="561"/>
			<point x="461" y="514"/>
			<point x="457" y="421" type="curve" smooth="yes"/>
			<point x="446" y="169" type="line" smooth="yes"/>
			<point x="443" y="104"/>
			<point x="409" y="67"/>
			<point x="327" y="67" type="curve" smooth="yes"/>
			<point x="246" y="67"/>
			<point x="212" y="104"/>
			<point x="209" y="169" type="curve" smooth="yes"/>
			<point x="198" y="421" type="line" smooth="yes"/>
			<point x="194" y="514"/>
			<point x="146" y="561"/>
			<point x="65" y="561" type="curve" smooth="yes"/>
			<point x="40" y="561" type="line"/>
			<point x="40" y="489" type="line"/>
			<point x="58" y="489" type="line" smooth="yes"/>
			<point x="91" y="489"/>
			<point x="108" y="470"/>
			<point x="110" y="431" type="curve" smooth="yes"/>
			<point x="120" y="173" type="line" smooth="yes"/>
			<point x="125" y="55"/>
			<point x="191" y="-5"/>
		</contour>
	</outline>
</glyph>
<glyph name="hiyo_wara" format="2">
	<advance width="758"/>
	<unicode hex="118D9"/>
	<note>
		uni118D9
  </note>
	<outline>
		<contour>
			<point x="708" y="384" type="line" smooth="yes"/>
			<point x="708" y="499"/>
			<point x="645" y="566"/>
			<point x="520" y="566" type="curve" smooth="yes"/>
			<point x="397" y="566"/>
			<point x="330" y="497"/>
			<point x="330" y="379" type="curve" smooth="yes"/>
			<point x="330" y="176" type="line" smooth="yes"/>
			<point x="330" y="103"/>
			<point x="304" y="67"/>
			<point x="239" y="67" type="curve" smooth="yes"/>
			<point x="172" y="67"/>
			<point x="138" y="99"/>
			<point x="138" y="164" type="curve" smooth="yes"/>
			<point x="138" y="345" type="line" smooth="yes"/>
			<point x="138" y="445"/>
			<point x="152" y="511"/>
			<point x="160" y="543" type="curve"/>
			<point x="82" y="564" type="line"/>
			<point x="68" y="523"/>
			<point x="50" y="454"/>
			<point x="50" y="357" type="curve" smooth="yes"/>
			<point x="50" y="168" type="line" smooth="yes"/>
			<point x="50" y="53"/>
			<point x="113" y="-5"/>
			<point x="238" y="-5" type="curve" smooth="yes"/>
			<point x="359" y="-5"/>
			<point x="418" y="55"/>
			<point x="418" y="176" type="curve" smooth="yes"/>
			<point x="418" y="393" type="line" smooth="yes"/>
			<point x="418" y="459"/>
			<point x="457" y="494"/>
			<point x="520" y="494" type="curve" smooth="yes"/>
			<point x="591" y="494"/>
			<point x="620" y="460"/>
			<point x="620" y="397" type="curve" smooth="yes"/>
			<point x="620" y="206" type="line" smooth="yes"/>
			<point x="620" y="112"/>
			<point x="606" y="46"/>
			<point x="598" y="14" type="curve"/>
			<point x="676" y="-7" type="line"/>
			<point x="690" y="34"/>
			<point x="708" y="103"/>
			<point x="708" y="200" type="curve" smooth="yes"/>
		</contour>
	</outline>
</glyph>
<glyph name="ssuu_wara" format="2">
	<advance width="521"/>
	<unicode hex="118DD"/>
	<note>
		uni118DD
  </note>
	<outline>
		<contour>
			<point x="267" y="-5" type="curve" smooth="yes"/>
			<point x="397" y="-5"/>
			<point x="471" y="48"/>
			<point x="471" y="154" type="curve" smooth="yes"/>
			<point x="471" y="561" type="line"/>
			<point x="383" y="561" type="line"/>
			<point x="383" y="355" type="line"/>
			<point x="248" y="355" type="line" smooth="yes"/>
			<point x="215" y="355"/>
			<point x="191" y="389"/>
			<point x="176" y="457" type="curve" smooth="yes"/>
			<point x="162" y="521"/>
			<point x="126" y="560"/>
			<point x="69" y="573" type="curve"/>
			<point x="40" y="503" type="line"/>
			<point x="75" y="496"/>
			<point x="97" y="472"/>
			<point x="106" y="431" type="curve" smooth="yes"/>
			<point x="116" y="387"/>
			<point x="130" y="353"/>
			<point x="150" y="328" type="curve"/>
			<point x="150" y="323" type="line"/>
			<point x="93" y="294"/>
			<point x="51" y="243"/>
			<point x="51" y="171" type="curve" smooth="yes"/>
			<point x="51" y="54"/>
			<point x="132" y="-5"/>
		</contour>
		<contour>
			<point x="383" y="162" type="line" smooth="yes"/>
			<point x="383" y="97"/>
			<point x="344" y="67"/>
			<point x="265" y="67" type="curve" smooth="yes"/>
			<point x="181" y="67"/>
			<point x="139" y="102"/>
			<point x="139" y="175" type="curve" smooth="yes"/>
			<point x="139" y="246"/>
			<point x="179" y="283"/>
			<point x="260" y="283" type="curve" smooth="yes"/>
			<point x="383" y="283" type="line"/>
		</contour>
	</outline>
</glyph>
<glyph name="sii_wara" format="2">
	<advance width="649"/>
	<unicode hex="118DE"/>
	<note>
		uni118DE
  </note>
	<outline>
		<contour>
			<point x="312" y="257" type="curve" smooth="yes"/>
			<point x="401" y="236"/>
			<point x="440" y="233"/>
			<point x="463" y="233" type="curve" smooth="yes"/>
			<point x="535" y="233"/>
			<point x="575" y="273"/>
			<point x="586" y="352" type="curve" smooth="yes"/>
			<point x="610" y="528" type="line"/>
			<point x="529" y="538" type="line"/>
			<point x="504" y="357" type="line" smooth="yes"/>
			<point x="499" y="324"/>
			<point x="481" y="308"/>
			<point x="454" y="308" type="curve" smooth="yes"/>
			<point x="432" y="308"/>
			<point x="378" y="320"/>
			<point x="264" y="344" type="curve" smooth="yes"/>
			<point x="146" y="369"/>
			<point x="50" y="320"/>
			<point x="50" y="203" type="curve" smooth="yes"/>
			<point x="50" y="78"/>
			<point x="159" y="33"/>
			<point x="297" y="16" type="curve" smooth="yes"/>
			<point x="367" y="7"/>
			<point x="449" y="2"/>
			<point x="543" y="1" type="curve"/>
			<point x="545" y="74" type="line"/>
			<point x="474" y="74"/>
			<point x="396" y="78"/>
			<point x="313" y="86" type="curve" smooth="yes"/>
			<point x="186" y="99"/>
			<point x="123" y="133"/>
			<point x="123" y="203" type="curve" smooth="yes"/>
			<point x="123" y="249"/>
			<point x="150" y="279"/>
			<point x="202" y="279" type="curve" smooth="yes"/>
			<point x="229" y="279"/>
			<point x="252" y="271"/>
		</contour>
		<contour>
			<point x="335" y="226" type="line" smooth="yes"/>
			<point x="364" y="344"/>
			<point x="369" y="369"/>
			<point x="369" y="408" type="curve" smooth="yes"/>
			<point x="369" y="493"/>
			<point x="316" y="549"/>
			<point x="200" y="561" type="curve" smooth="yes"/>
			<point x="131" y="568" type="line"/>
			<point x="123" y="496" type="line"/>
			<point x="190" y="489" type="line" smooth="yes"/>
			<point x="262" y="481"/>
			<point x="294" y="452"/>
			<point x="294" y="396" type="curve" smooth="yes"/>
			<point x="294" y="363"/>
			<point x="284" y="338"/>
			<point x="256" y="227" type="curve" smooth="yes"/>
			<point x="246" y="187" type="line"/>
			<point x="321" y="169" type="line"/>
		</contour>
	</outline>
</glyph>
<glyph name="viyo_wara" format="2">
	<advance width="598"/>
	<unicode hex="118DF"/>
	<note>
		uni118DF
  </note>
	<outline>
		<contour>
			<point x="206" y="402" type="line" smooth="yes"/>
			<point x="206" y="456"/>
			<point x="232" y="489"/>
			<point x="283" y="489" type="curve" smooth="yes"/>
			<point x="397" y="489" type="line"/>
			<point x="397" y="561" type="line"/>
			<point x="292" y="561" type="line" smooth="yes"/>
			<point x="180" y="561"/>
			<point x="118" y="503"/>
			<point x="118" y="388" type="curve" smooth="yes"/>
			<point x="118" y="120" type="line" smooth="yes"/>
			<point x="118" y="91"/>
			<point x="104" y="72"/>
			<point x="77" y="72" type="curve" smooth="yes"/>
			<point x="40" y="72" type="line"/>
			<point x="40" y="0" type="line"/>
			<point x="90" y="0" type="line" smooth="yes"/>
			<point x="163" y="0"/>
			<point x="206" y="46"/>
			<point x="206" y="139" type="curve" smooth="yes"/>
			<point x="206" y="178" type="line"/>
			<point x="236" y="252"/>
			<point x="284" y="293"/>
			<point x="350" y="293" type="curve" smooth="yes"/>
			<point x="423" y="293"/>
			<point x="460" y="250"/>
			<point x="460" y="173" type="curve" smooth="yes"/>
			<point x="460" y="132"/>
			<point x="439" y="87"/>
			<point x="398" y="37" type="curve"/>
			<point x="471" y="-8" type="line"/>
			<point x="522" y="50"/>
			<point x="548" y="114"/>
			<point x="548" y="183" type="curve" smooth="yes"/>
			<point x="548" y="304"/>
			<point x="464" y="365"/>
			<point x="364" y="365" type="curve" smooth="yes"/>
			<point x="297" y="365"/>
			<point x="244" y="344"/>
			<point x="206" y="303" type="curve"/>
		</contour>
	</outline>
</glyph>
<glyph name="one_wara" format="2">
	<advance width="357"/>
	<unicode hex="118E1"/>
	<note>
		uni118E1
  </note>
	<outline>
		<contour>
			<point x="317" y="234" type="curve" smooth="yes"/>
			<point x="317" y="278"/>
			<point x="304" y="321"/>
			<point x="284" y="352" type="curve" smooth="yes"/>
			<point x="187" y="499" type="line" smooth="yes"/>
			<point x="179" y="511"/>
			<point x="175" y="523"/>
			<point x="175" y="535" type="curve" smooth="yes"/>
			<point x="175" y="548"/>
			<point x="180" y="562"/>
			<point x="189" y="575" type="curve" smooth="yes"/>
			<point x="234" y="639" type="line"/>
			<point x="137" y="639" type="line"/>
			<point x="102" y="579" type="line" smooth="yes"/>
			<point x="92" y="563"/>
			<point x="87" y="548"/>
			<point x="87" y="533" type="curve" smooth="yes"/>
			<point x="87" y="518"/>
			<point x="92" y="503"/>
			<point x="101" y="489" type="curve" smooth="yes"/>
			<point x="201" y="333" type="line"/>
			<point x="101" y="284"/>
			<point x="46" y="217"/>
			<point x="46" y="133" type="curve" smooth="yes"/>
			<point x="46" y="92"/>
			<point x="59" y="47"/>
			<point x="85" y="-1" type="curve"/>
			<point x="232" y="26"/>
			<point x="317" y="120"/>
		</contour>
		<contour>
			<point x="227" y="260" type="curve"/>
			<point x="228" y="250"/>
			<point x="229" y="240"/>
			<point x="229" y="230" type="curve" smooth="yes"/>
			<point x="229" y="151"/>
			<point x="196" y="102"/>
			<point x="129" y="82" type="curve"/>
			<point x="127" y="95"/>
			<point x="126" y="108"/>
			<point x="126" y="119" type="curve" smooth="yes"/>
			<point x="126" y="188"/>
			<point x="160" y="235"/>
		</contour>
	</outline>
</glyph>
<glyph name="two_wara" format="2">
	<advance width="592"/>
	<unicode hex="118E2"/>
	<note>
		uni118E2
  </note>
	<outline>
		<contour>
			<point x="91" y="458" type="line"/>
			<point x="153" y="312" type="line"/>
			<point x="76" y="271"/>
			<point x="40" y="214"/>
			<point x="40" y="143" type="curve" smooth="yes"/>
			<point x="40" y="101"/>
			<point x="53" y="53"/>
			<point x="84" y="0" type="curve"/>
			<point x="195" y="33"/>
			<point x="250" y="97"/>
			<point x="250" y="190" type="curve" smooth="yes"/>
			<point x="250" y="226"/>
			<point x="242" y="266"/>
			<point x="226" y="311" type="curve" smooth="yes"/>
			<point x="180" y="437" type="line"/>
			<point x="296" y="550" type="line"/>
			<point x="411" y="437" type="line"/>
			<point x="362" y="312" type="line" smooth="yes"/>
			<point x="344" y="267"/>
			<point x="336" y="227"/>
			<point x="336" y="191" type="curve" smooth="yes"/>
			<point x="336" y="99"/>
			<point x="394" y="35"/>
			<point x="509" y="0" type="curve"/>
			<point x="539" y="53"/>
			<point x="552" y="101"/>
			<point x="552" y="144" type="curve" smooth="yes"/>
			<point x="552" y="215"/>
			<point x="517" y="271"/>
			<point x="441" y="312" type="curve"/>
			<point x="500" y="458" type="line"/>
			<point x="295" y="646" type="line"/>
		</contour>
		<contour>
			<point x="420" y="250" type="curve"/>
			<point x="460" y="218"/>
			<point x="480" y="182"/>
			<point x="480" y="142" type="curve" smooth="yes"/>
			<point x="480" y="124"/>
			<point x="476" y="105"/>
			<point x="468" y="86" type="curve"/>
			<point x="427" y="113"/>
			<point x="406" y="147"/>
			<point x="406" y="188" type="curve" smooth="yes"/>
			<point x="406" y="207"/>
			<point x="411" y="228"/>
		</contour>
		<contour>
			<point x="121" y="87" type="curve"/>
			<point x="117" y="105"/>
			<point x="115" y="122"/>
			<point x="115" y="137" type="curve" smooth="yes"/>
			<point x="115" y="185"/>
			<point x="134" y="221"/>
			<point x="173" y="246" type="curve"/>
			<point x="180" y="225"/>
			<point x="184" y="206"/>
			<point x="184" y="189" type="curve" smooth="yes"/>
			<point x="184" y="146"/>
			<point x="163" y="112"/>
		</contour>
	</outline>
</glyph>
<glyph name="three_wara" format="2">
	<advance width="630"/>
	<unicode hex="118E3"/>
	<note>
		uni118E3
  </note>
	<outline>
		<contour>
			<point x="230" y="645" type="curve" smooth="yes"/>
			<point x="195" y="645"/>
			<point x="167" y="629"/>
			<point x="147" y="597" type="curve"/>
			<point x="131" y="625"/>
			<point x="99" y="639"/>
			<point x="70" y="639" type="curve" smooth="yes"/>
			<point x="30" y="639" type="line"/>
			<point x="30" y="567" type="line"/>
			<point x="52" y="567" type="line" smooth="yes"/>
			<point x="68" y="567"/>
			<point x="76" y="556"/>
			<point x="76" y="535" type="curve" smooth="yes"/>
			<point x="76" y="0" type="line"/>
			<point x="164" y="0" type="line"/>
			<point x="164" y="545" type="line"/>
			<point x="179" y="564"/>
			<point x="196" y="573"/>
			<point x="216" y="573" type="curve" smooth="yes"/>
			<point x="248" y="573"/>
			<point x="265" y="557"/>
			<point x="265" y="525" type="curve" smooth="yes"/>
			<point x="265" y="0" type="line"/>
			<point x="353" y="0" type="line"/>
			<point x="353" y="544" type="line"/>
			<point x="365" y="563"/>
			<point x="379" y="572"/>
			<point x="403" y="572" type="curve" smooth="yes"/>
			<point x="435" y="572"/>
			<point x="451" y="556"/>
			<point x="451" y="524" type="curve" smooth="yes"/>
			<point x="451" y="121" type="line" smooth="yes"/>
			<point x="451" y="40"/>
			<point x="492" y="0"/>
			<point x="555" y="0" type="curve" smooth="yes"/>
			<point x="590" y="0" type="line"/>
			<point x="590" y="74" type="line"/>
			<point x="570" y="74" type="line" smooth="yes"/>
			<point x="549" y="74"/>
			<point x="539" y="86"/>
			<point x="539" y="109" type="curve" smooth="yes"/>
			<point x="539" y="519" type="line" smooth="yes"/>
			<point x="539" y="602"/>
			<point x="492" y="644"/>
			<point x="415" y="644" type="curve" smooth="yes"/>
			<point x="374" y="644"/>
			<point x="338" y="629"/>
			<point x="308" y="598" type="curve"/>
			<point x="291" y="629"/>
			<point x="265" y="645"/>
		</contour>
	</outline>
</glyph>
<glyph name="five_wara" format="2">
	<advance width="698"/>
	<unicode hex="118E5"/>
	<note>
		uni118E5
  </note>
	<outline>
		<contour>
			<point x="430" y="560" type="curve" smooth="yes"/>
			<point x="357" y="614"/>
			<point x="295" y="636"/>
			<point x="226" y="636" type="curve" smooth="yes"/>
			<point x="171" y="636"/>
			<point x="111" y="617"/>
			<point x="56" y="587" type="curve"/>
			<point x="90" y="521" type="line"/>
			<point x="134" y="550"/>
			<point x="181" y="564"/>
			<point x="231" y="564" type="curve" smooth="yes"/>
			<point x="320" y="564"/>
			<point x="351" y="521"/>
			<point x="409" y="479" type="curve" smooth="yes"/>
			<point x="461" y="441"/>
			<point x="499" y="426"/>
			<point x="540" y="426" type="curve" smooth="yes"/>
			<point x="608" y="426"/>
			<point x="668" y="466"/>
			<point x="668" y="538" type="curve" smooth="yes"/>
			<point x="668" y="600"/>
			<point x="622" y="650"/>
			<point x="551" y="650" type="curve" smooth="yes"/>
			<point x="496" y="650"/>
			<point x="442" y="623"/>
			<point x="399" y="524" type="curve" smooth="yes"/>
			<point x="243" y="163" type="line" smooth="yes"/>
			<point x="212" y="90"/>
			<point x="192" y="62"/>
			<point x="156" y="62" type="curve" smooth="yes"/>
			<point x="126" y="62"/>
			<point x="110" y="82"/>
			<point x="110" y="102" type="curve" smooth="yes"/>
			<point x="110" y="123"/>
			<point x="126" y="141"/>
			<point x="160" y="141" type="curve" smooth="yes"/>
			<point x="181" y="141"/>
			<point x="211" y="134"/>
			<point x="253" y="101" type="curve" smooth="yes"/>
			<point x="316" y="51"/>
			<point x="376" y="5"/>
			<point x="476" y="5" type="curve" smooth="yes"/>
			<point x="531" y="5"/>
			<point x="589" y="20"/>
			<point x="643" y="50" type="curve"/>
			<point x="609" y="121" type="line"/>
			<point x="566" y="93"/>
			<point x="519" y="77"/>
			<point x="476" y="77" type="curve" smooth="yes"/>
			<point x="411" y="77"/>
			<point x="364" y="115"/>
			<point x="297" y="160" type="curve" smooth="yes"/>
			<point x="236" y="201"/>
			<point x="193" y="213"/>
			<point x="156" y="213" type="curve" smooth="yes"/>
			<point x="87" y="213"/>
			<point x="30" y="168"/>
			<point x="30" y="98" type="curve" smooth="yes"/>
			<point x="30" y="34"/>
			<point x="81" y="-10"/>
			<point x="147" y="-10" type="curve" smooth="yes"/>
			<point x="213" y="-10"/>
			<point x="270" y="40"/>
			<point x="299" y="106" type="curve" smooth="yes"/>
			<point x="485" y="535" type="line" smooth="yes"/>
			<point x="497" y="562"/>
			<point x="515" y="578"/>
			<point x="543" y="578" type="curve" smooth="yes"/>
			<point x="571" y="578"/>
			<point x="588" y="561"/>
			<point x="588" y="538" type="curve" smooth="yes"/>
			<point x="588" y="511"/>
			<point x="565" y="498"/>
			<point x="538" y="498" type="curve" smooth="yes"/>
			<point x="488" y="498"/>
			<point x="457" y="540"/>
		</contour>
	</outline>
</glyph>
<glyph name="six_wara" format="2">
	<advance width="732"/>
	<unicode hex="118E6"/>
	<note>
		uni118E6
  </note>
	<outline>
		<contour>
			<point x="171" y="0" type="line"/>
			<point x="240" y="0" type="line"/>
			<point x="363" y="458" type="line"/>
			<point x="369" y="458" type="line"/>
			<point x="491" y="0" type="line"/>
			<point x="560" y="0" type="line"/>
			<point x="642" y="517" type="line" smooth="yes"/>
			<point x="647" y="550"/>
			<point x="659" y="567"/>
			<point x="679" y="567" type="curve" smooth="yes"/>
			<point x="702" y="567" type="line"/>
			<point x="702" y="639" type="line"/>
			<point x="662" y="639" type="line" smooth="yes"/>
			<point x="607" y="639"/>
			<point x="579" y="596"/>
			<point x="565" y="510" type="curve" smooth="yes"/>
			<point x="515" y="198" type="line"/>
			<point x="510" y="198" type="line"/>
			<point x="392" y="639" type="line"/>
			<point x="340" y="639" type="line"/>
			<point x="221" y="198" type="line"/>
			<point x="216" y="198" type="line"/>
			<point x="167" y="510" type="line" smooth="yes"/>
			<point x="153" y="596"/>
			<point x="125" y="639"/>
			<point x="70" y="639" type="curve" smooth="yes"/>
			<point x="30" y="639" type="line"/>
			<point x="30" y="567" type="line"/>
			<point x="53" y="567" type="line" smooth="yes"/>
			<point x="73" y="567"/>
			<point x="85" y="550"/>
			<point x="90" y="517" type="curve" smooth="yes"/>
		</contour>
	</outline>
</glyph>
<glyph name="seven_wara" format="2">
	<advance width="605"/>
	<unicode hex="118E7"/>
	<note>
		uni118E7
  </note>
	<outline>
		<contour>
			<point x="49" y="359" type="line"/>
			<point x="49" y="217" type="line" smooth="yes"/>
			<point x="49" y="69"/>
			<point x="132" y="-5"/>
			<point x="312" y="-5" type="curve" smooth="yes"/>
			<point x="489" y="-5"/>
			<point x="570" y="84"/>
			<point x="570" y="202" type="curve" smooth="yes"/>
			<point x="570" y="273"/>
			<point x="564" y="423"/>
			<point x="550" y="640" type="curve"/>
			<point x="470" y="640" type="line"/>
			<point x="483" y="429"/>
			<point x="489" y="313"/>
			<point x="489" y="195" type="curve" smooth="yes"/>
			<point x="489" y="115"/>
			<point x="430" y="67"/>
			<point x="312" y="67" type="curve" smooth="yes"/>
			<point x="190" y="67"/>
			<point x="129" y="117"/>
			<point x="129" y="202" type="curve" smooth="yes"/>
			<point x="129" y="275" type="line"/>
			<point x="151" y="272"/>
			<point x="172" y="270"/>
			<point x="187" y="270" type="curve" smooth="yes"/>
			<point x="269" y="270"/>
			<point x="348" y="332"/>
			<point x="348" y="461" type="curve" smooth="yes"/>
			<point x="348" y="566"/>
			<point x="284" y="645"/>
			<point x="178" y="645" type="curve" smooth="yes"/>
			<point x="117" y="645"/>
			<point x="69" y="627"/>
			<point x="36" y="591" type="curve"/>
			<point x="83" y="540" type="line"/>
			<point x="108" y="562"/>
			<point x="140" y="573"/>
			<point x="178" y="573" type="curve" smooth="yes"/>
			<point x="238" y="573"/>
			<point x="268" y="528"/>
			<point x="268" y="457" type="curve" smooth="yes"/>
			<point x="268" y="380"/>
			<point x="236" y="342"/>
			<point x="170" y="342" type="curve" smooth="yes"/>
			<point x="151" y="342"/>
			<point x="131" y="345"/>
			<point x="112" y="352" type="curve"/>
			<point x="106" y="359" type="line"/>
		</contour>
	</outline>
</glyph>
<glyph name="eight_wara" format="2">
	<advance width="513"/>
	<unicode hex="118E8"/>
	<note>
		uni118E8
  </note>
	<outline>
		<contour>
			<point x="385" y="241" type="line" smooth="yes"/>
			<point x="429" y="304"/>
			<point x="471" y="369"/>
			<point x="471" y="448" type="curve" smooth="yes"/>
			<point x="471" y="575"/>
			<point x="384" y="644"/>
			<point x="253" y="644" type="curve" smooth="yes"/>
			<point x="128" y="644"/>
			<point x="32" y="573"/>
			<point x="32" y="461" type="curve"/>
			<point x="120" y="461" type="line"/>
			<point x="123" y="528"/>
			<point x="165" y="572"/>
			<point x="246" y="572" type="curve" smooth="yes"/>
			<point x="337" y="572"/>
			<point x="383" y="518"/>
			<point x="383" y="439" type="curve" smooth="yes"/>
			<point x="383" y="384"/>
			<point x="361" y="329"/>
			<point x="318" y="270" type="curve" smooth="yes"/>
			<point x="122" y="0" type="line"/>
			<point x="215" y="0" type="line"/>
		</contour>
	</outline>
</glyph>
<glyph name="nine_wara" format="2">
	<advance width="561"/>
	<unicode hex="118E9"/>
	<note>
		uni118E9
  </note>
	<outline>
		<contour>
			<point x="138" y="436"/>
			<point x="175" y="509"/>
			<point x="273" y="509" type="curve" smooth="yes"/>
			<point x="352" y="509"/>
			<point x="421" y="459"/>
			<point x="444" y="348" type="curve"/>
			<point x="521" y="348" type="line"/>
			<point x="521" y="639" type="line"/>
			<point x="433" y="639" type="line"/>
			<point x="433" y="508" type="line"/>
			<point x="388" y="557"/>
			<point x="332" y="581"/>
			<point x="263" y="581" type="curve" smooth="yes"/>
			<point x="133" y="581"/>
			<point x="50" y="486"/>
			<point x="50" y="355" type="curve" smooth="yes"/>
			<point x="50" y="183"/>
			<point x="195" y="64"/>
			<point x="475" y="4" type="curve"/>
			<point x="494" y="75" type="line"/>
			<point x="257" y="126"/>
			<point x="138" y="200"/>
			<point x="138" y="349" type="curve" smooth="yes"/>
		</contour>
	</outline>
</glyph>
<glyph name="twenty_wara" format="2">
	<advance width="647"/>
	<unicode hex="118EB"/>
	<note>
		uni118EB
  </note>
	<outline>
		<contour>
			<point x="448" y="321" type="curve"/>
			<point x="419" y="274"/>
			<point x="377" y="250"/>
			<point x="323" y="250" type="curve" smooth="yes"/>
			<point x="269" y="250"/>
			<point x="228" y="274"/>
			<point x="199" y="321" type="curve"/>
			<point x="228" y="368"/>
			<point x="269" y="392"/>
			<point x="323" y="392" type="curve" smooth="yes"/>
			<point x="377" y="392"/>
			<point x="419" y="368"/>
		</contour>
		<contour>
			<point x="323" y="178" type="curve" smooth="yes"/>
			<point x="388" y="178"/>
			<point x="441" y="200"/>
			<point x="481" y="239" type="curve"/>
			<point x="486" y="215"/>
			<point x="491" y="185"/>
			<point x="494" y="150" type="curve" smooth="yes"/>
			<point x="509" y="0" type="line"/>
			<point x="597" y="0" type="line"/>
			<point x="582" y="150" type="line" smooth="yes"/>
			<point x="575" y="218"/>
			<point x="564" y="275"/>
			<point x="545" y="322" type="curve"/>
			<point x="564" y="362"/>
			<point x="574" y="419"/>
			<point x="582" y="493" type="curve" smooth="yes"/>
			<point x="597" y="638" type="line"/>
			<point x="509" y="638" type="line"/>
			<point x="494" y="493" type="line" smooth="yes"/>
			<point x="490" y="458"/>
			<point x="486" y="429"/>
			<point x="481" y="404" type="curve"/>
			<point x="441" y="443"/>
			<point x="388" y="464"/>
			<point x="323" y="464" type="curve" smooth="yes"/>
			<point x="258" y="464"/>
			<point x="206" y="443"/>
			<point x="165" y="404" type="curve"/>
			<point x="160" y="429"/>
			<point x="155" y="459"/>
			<point x="152" y="493" type="curve" smooth="yes"/>
			<point x="138" y="638" type="line"/>
			<point x="50" y="638" type="line"/>
			<point x="64" y="493" type="line" smooth="yes"/>
			<point x="71" y="419"/>
			<point x="82" y="362"/>
			<point x="101" y="322" type="curve"/>
			<point x="82" y="275"/>
			<point x="70" y="217"/>
			<point x="64" y="150" type="curve" smooth="yes"/>
			<point x="50" y="0" type="line"/>
			<point x="138" y="0" type="line"/>
			<point x="152" y="150" type="line" smooth="yes"/>
			<point x="156" y="189"/>
			<point x="160" y="219"/>
			<point x="165" y="239" type="curve"/>
			<point x="206" y="200"/>
			<point x="258" y="178"/>
		</contour>
	</outline>
</glyph>
<glyph name="forty_wara" format="2">
	<advance width="721"/>
	<unicode hex="118ED"/>
	<note>
		uni118ED
  </note>
	<outline>
		<contour>
			<point x="603" y="0" type="line"/>
			<point x="691" y="0" type="line"/>
			<point x="691" y="168" type="line" smooth="yes"/>
			<point x="691" y="251"/>
			<point x="641" y="291"/>
			<point x="541" y="291" type="curve" smooth="yes"/>
			<point x="433" y="291" type="line"/>
			<point x="433" y="576" type="line" smooth="yes"/>
			<point x="433" y="623"/>
			<point x="408" y="647"/>
			<point x="363" y="647" type="curve" smooth="yes"/>
			<point x="337" y="647"/>
			<point x="312" y="633"/>
			<point x="287" y="606" type="curve" smooth="yes"/>
			<point x="92" y="402" type="line" smooth="yes"/>
			<point x="56" y="364"/>
			<point x="35" y="328"/>
			<point x="35" y="296" type="curve" smooth="yes"/>
			<point x="35" y="245"/>
			<point x="88" y="219"/>
			<point x="160" y="219" type="curve" smooth="yes"/>
			<point x="345" y="219" type="line"/>
			<point x="345" y="0" type="line"/>
			<point x="433" y="0" type="line"/>
			<point x="433" y="219" type="line"/>
			<point x="536" y="219" type="line" smooth="yes"/>
			<point x="581" y="219"/>
			<point x="603" y="200"/>
			<point x="603" y="163" type="curve" smooth="yes"/>
		</contour>
		<contour>
			<point x="331" y="544" type="line"/>
			<point x="335" y="547"/>
			<point x="338" y="549"/>
			<point x="341" y="549" type="curve" smooth="yes"/>
			<point x="344" y="549"/>
			<point x="345" y="547"/>
			<point x="345" y="542" type="curve" smooth="yes"/>
			<point x="345" y="291" type="line"/>
			<point x="170" y="291" type="line" smooth="yes"/>
			<point x="141" y="291"/>
			<point x="127" y="299"/>
			<point x="127" y="313" type="curve" smooth="yes"/>
			<point x="127" y="325"/>
			<point x="138" y="342"/>
			<point x="159" y="364" type="curve" smooth="yes"/>
		</contour>
	</outline>
</glyph>
<glyph name="fifty_wara" format="2">
	<advance width="706"/>
	<unicode hex="118EE"/>
	<note>
		uni118EE
  </note>
	<outline>
		<contour>
			<point x="515" y="185" type="line" smooth="yes"/>
			<point x="550" y="164"/>
			<point x="568" y="143"/>
			<point x="568" y="118" type="curve" smooth="yes"/>
			<point x="568" y="90"/>
			<point x="546" y="71"/>
			<point x="498" y="71" type="curve" smooth="yes"/>
			<point x="448" y="71"/>
			<point x="383" y="92"/>
			<point x="310" y="135" type="curve"/>
			<point x="369" y="271" type="line"/>
		</contour>
		<contour>
			<point x="251" y="177" type="line"/>
			<point x="214" y="196"/>
			<point x="187" y="203"/>
			<point x="155" y="203" type="curve" smooth="yes"/>
			<point x="93" y="203"/>
			<point x="40" y="166"/>
			<point x="40" y="99" type="curve" smooth="yes"/>
			<point x="40" y="35"/>
			<point x="88" y="-1"/>
			<point x="151" y="-1" type="curve" smooth="yes"/>
			<point x="206" y="-1"/>
			<point x="256" y="28"/>
			<point x="282" y="71" type="curve"/>
			<point x="361" y="24"/>
			<point x="424" y="5"/>
			<point x="492" y="5" type="curve" smooth="yes"/>
			<point x="576" y="5"/>
			<point x="648" y="42"/>
			<point x="648" y="117" type="curve" smooth="yes"/>
			<point x="648" y="171"/>
			<point x="605" y="219"/>
			<point x="540" y="258" type="curve" smooth="yes"/>
			<point x="399" y="342" type="line"/>
			<point x="456" y="473" type="line"/>
			<point x="489" y="455"/>
			<point x="518" y="446"/>
			<point x="552" y="446" type="curve" smooth="yes"/>
			<point x="619" y="446"/>
			<point x="666" y="483"/>
			<point x="666" y="546" type="curve" smooth="yes"/>
			<point x="666" y="607"/>
			<point x="620" y="647"/>
			<point x="553" y="647" type="curve" smooth="yes"/>
			<point x="492" y="647"/>
			<point x="455" y="612"/>
			<point x="430" y="573" type="curve"/>
			<point x="351" y="621"/>
			<point x="282" y="646"/>
			<point x="216" y="646" type="curve" smooth="yes"/>
			<point x="131" y="646"/>
			<point x="57" y="605"/>
			<point x="57" y="526" type="curve" smooth="yes"/>
			<point x="57" y="467"/>
			<point x="101" y="430"/>
			<point x="165" y="392" type="curve" smooth="yes"/>
			<point x="307" y="308" type="line"/>
		</contour>
		<contour>
			<point x="223" y="111" type="curve"/>
			<point x="209" y="83"/>
			<point x="183" y="63"/>
			<point x="157" y="63" type="curve" smooth="yes"/>
			<point x="126" y="63"/>
			<point x="110" y="77"/>
			<point x="110" y="101" type="curve" smooth="yes"/>
			<point x="110" y="129"/>
			<point x="131" y="141"/>
			<point x="152" y="141" type="curve" smooth="yes"/>
			<point x="181" y="141"/>
			<point x="205" y="124"/>
		</contour>
		<contour>
			<point x="190" y="464" type="line" smooth="yes"/>
			<point x="155" y="485"/>
			<point x="137" y="507"/>
			<point x="137" y="532" type="curve" smooth="yes"/>
			<point x="137" y="559"/>
			<point x="159" y="579"/>
			<point x="207" y="579" type="curve" smooth="yes"/>
			<point x="257" y="579"/>
			<point x="323" y="557"/>
			<point x="396" y="514" type="curve"/>
			<point x="337" y="377" type="line"/>
		</contour>
		<contour>
			<point x="481" y="531" type="curve"/>
			<point x="497" y="569"/>
			<point x="522" y="586"/>
			<point x="553" y="586" type="curve" smooth="yes"/>
			<point x="580" y="586"/>
			<point x="596" y="570"/>
			<point x="596" y="548" type="curve" smooth="yes"/>
			<point x="596" y="526"/>
			<point x="580" y="509"/>
			<point x="547" y="509" type="curve" smooth="yes"/>
			<point x="524" y="509"/>
			<point x="502" y="516"/>
		</contour>
	</outline>
</glyph>
<glyph name="sixty_wara" format="2">
	<advance width="911"/>
	<unicode hex="118EF"/>
	<note>
		uni118EF
  </note>
	<outline>
		<contour>
			<point x="703" y="496" type="line" smooth="yes"/>
			<point x="708" y="541"/>
			<point x="716" y="567"/>
			<point x="748" y="567" type="curve" smooth="yes"/>
			<point x="777" y="567"/>
			<point x="791" y="545"/>
			<point x="791" y="509" type="curve" smooth="yes"/>
			<point x="791" y="445"/>
			<point x="755" y="409"/>
			<point x="693" y="400" type="curve"/>
		</contour>
		<contour>
			<point x="437" y="398" type="line"/>
			<point x="455" y="458" type="line"/>
			<point x="473" y="398" type="line"/>
		</contour>
		<contour>
			<point x="366" y="398" type="line"/>
			<point x="297" y="398" type="line"/>
			<point x="288" y="496" type="line" smooth="yes"/>
			<point x="279" y="591"/>
			<point x="236" y="639"/>
			<point x="160" y="639" type="curve" smooth="yes"/>
			<point x="81" y="639"/>
			<point x="32" y="577"/>
			<point x="32" y="504" type="curve" smooth="yes"/>
			<point x="32" y="399"/>
			<point x="114" y="339"/>
			<point x="224" y="332" type="curve"/>
			<point x="264" y="0" type="line"/>
			<point x="326" y="0" type="line"/>
			<point x="420" y="330" type="line"/>
			<point x="490" y="330" type="line"/>
			<point x="585" y="0" type="line"/>
			<point x="646" y="0" type="line"/>
			<point x="687" y="332" type="line"/>
			<point x="797" y="339"/>
			<point x="879" y="399"/>
			<point x="879" y="504" type="curve" smooth="yes"/>
			<point x="879" y="577"/>
			<point x="829" y="639"/>
			<point x="750" y="639" type="curve" smooth="yes"/>
			<point x="674" y="639"/>
			<point x="632" y="591"/>
			<point x="623" y="496" type="curve" smooth="yes"/>
			<point x="614" y="398" type="line"/>
			<point x="544" y="398" type="line"/>
			<point x="477" y="639" type="line"/>
			<point x="433" y="639" type="line"/>
		</contour>
		<contour>
			<point x="605" y="330" type="line"/>
			<point x="593" y="198" type="line"/>
			<point x="588" y="198" type="line"/>
			<point x="561" y="330" type="line"/>
		</contour>
		<contour>
			<point x="217" y="400" type="line"/>
			<point x="156" y="409"/>
			<point x="120" y="445"/>
			<point x="120" y="509" type="curve" smooth="yes"/>
			<point x="120" y="545"/>
			<point x="134" y="567"/>
			<point x="163" y="567" type="curve" smooth="yes"/>
			<point x="195" y="567"/>
			<point x="204" y="541"/>
			<point x="208" y="497" type="curve" smooth="yes"/>
		</contour>
		<contour>
			<point x="323" y="198" type="line"/>
			<point x="318" y="198" type="line"/>
			<point x="306" y="330" type="line"/>
			<point x="350" y="330" type="line"/>
		</contour>
	</outline>
</glyph>
<glyph name="seventy_wara" format="2">
	<advance width="710"/>
	<unicode hex="118F0"/>
	<note>
		uni118F0
  </note>
	<outline>
		<contour>
			<point x="555" y="133" type="curve"/>
			<point x="508" y="176"/>
			<point x="489" y="250"/>
			<point x="489" y="354" type="curve" smooth="yes"/>
			<point x="489" y="462" type="line" smooth="yes"/>
			<point x="489" y="537"/>
			<point x="505" y="574"/>
			<point x="534" y="574" type="curve" smooth="yes"/>
			<point x="563" y="574"/>
			<point x="579" y="537"/>
			<point x="579" y="462" type="curve" smooth="yes"/>
			<point x="579" y="202" type="line" smooth="yes"/>
			<point x="579" y="175"/>
			<point x="570" y="152"/>
		</contour>
		<contour>
			<point x="515" y="9"/>
			<point x="562" y="37" type="curve"/>
			<point x="593" y="18"/>
			<point x="629" y="9"/>
			<point x="670" y="9" type="curve"/>
			<point x="680" y="89" type="line"/>
			<point x="660" y="89"/>
			<point x="641" y="92"/>
			<point x="624" y="97" type="curve"/>
			<point x="647" y="133"/>
			<point x="667" y="173"/>
			<point x="667" y="217" type="curve" smooth="yes"/>
			<point x="667" y="462" type="line" smooth="yes"/>
			<point x="667" y="585"/>
			<point x="613" y="646"/>
			<point x="534" y="646" type="curve" smooth="yes"/>
			<point x="455" y="646"/>
			<point x="401" y="585"/>
			<point x="401" y="462" type="curve" smooth="yes"/>
			<point x="401" y="350" type="line" smooth="yes"/>
			<point x="401" y="235"/>
			<point x="433" y="149"/>
			<point x="488" y="90" type="curve"/>
			<point x="459" y="76"/>
			<point x="416" y="67"/>
			<point x="355" y="67" type="curve" smooth="yes"/>
			<point x="207" y="67"/>
			<point x="133" y="117"/>
			<point x="133" y="202" type="curve" smooth="yes"/>
			<point x="133" y="274" type="line"/>
			<point x="155" y="271"/>
			<point x="175" y="269"/>
			<point x="192" y="269" type="curve" smooth="yes"/>
			<point x="302" y="269"/>
			<point x="352" y="352"/>
			<point x="352" y="461" type="curve" smooth="yes"/>
			<point x="352" y="574"/>
			<point x="288" y="646"/>
			<point x="177" y="646" type="curve" smooth="yes"/>
			<point x="121" y="646"/>
			<point x="73" y="628"/>
			<point x="40" y="592" type="curve"/>
			<point x="87" y="538" type="line"/>
			<point x="112" y="560"/>
			<point x="145" y="574"/>
			<point x="177" y="574" type="curve" smooth="yes"/>
			<point x="235" y="574"/>
			<point x="264" y="528"/>
			<point x="264" y="457" type="curve" smooth="yes"/>
			<point x="264" y="380"/>
			<point x="232" y="342"/>
			<point x="176" y="342" type="curve" smooth="yes"/>
			<point x="159" y="342"/>
			<point x="139" y="345"/>
			<point x="118" y="350" type="curve"/>
			<point x="110" y="359" type="line"/>
			<point x="45" y="359" type="line"/>
			<point x="45" y="217" type="line" smooth="yes"/>
			<point x="45" y="69"/>
			<point x="149" y="-5"/>
			<point x="355" y="-5" type="curve" smooth="yes"/>
			<point x="449" y="-5"/>
		</contour>
	</outline>
</glyph>
<glyph name="eighty_wara" format="2">
	<advance width="503"/>
	<unicode hex="118F1"/>
	<note>
		uni118F1
  </note>
	<outline>
		<contour>
			<point x="40" y="639" type="line"/>
			<point x="40" y="336" type="line"/>
			<point x="113" y="336" type="line"/>
			<point x="150" y="423"/>
			<point x="203" y="466"/>
			<point x="271" y="466" type="curve" smooth="yes"/>
			<point x="334" y="466"/>
			<point x="365" y="438"/>
			<point x="365" y="372" type="curve" smooth="yes"/>
			<point x="365" y="257"/>
			<point x="258" y="154"/>
			<point x="45" y="70" type="curve"/>
			<point x="45" y="-2" type="line"/>
			<point x="316" y="84"/>
			<point x="453" y="225"/>
			<point x="453" y="381" type="curve" smooth="yes"/>
			<point x="453" y="476"/>
			<point x="386" y="549"/>
			<point x="286" y="549" type="curve" smooth="yes"/>
			<point x="232" y="549"/>
			<point x="179" y="526"/>
			<point x="128" y="479" type="curve"/>
			<point x="128" y="639" type="line"/>
		</contour>
	</outline>
</glyph>
<glyph name="AT_wara.sm" format="2">
	<advance width="726"/>
	<anchor x="363" y="688" name="top"/>
	<note>
		uni118B5.sm
  </note>
	<outline>
		<contour>
			<point x="223" y="555"/>
			<point x="363" y="555" type="curve" smooth="yes"/>
			<point x="503" y="555"/>
			<point x="578" y="453"/>
			<point x="578" y="313" type="curve" smooth="yes"/>
			<point x="578" y="173"/>
			<point x="503" y="75"/>
			<point x="363" y="75" type="curve" smooth="yes"/>
			<point x="223" y="75"/>
			<point x="148" y="173"/>
			<point x="148" y="313" type="curve" smooth="yes"/>
			<point x="148" y="454"/>
		</contour>
		<contour>
			<point x="666" y="113"/>
			<point x="666" y="313" type="curve" smooth="yes"/>
			<point x="666" y="513"/>
			<point x="543" y="635"/>
			<point x="363" y="635" type="curve" smooth="yes"/>
			<point x="183" y="635"/>
			<point x="60" y="513"/>
			<point x="60" y="313" type="curve" smooth="yes"/>
			<point x="60" y="113"/>
			<point x="182" y="-5"/>
			<point x="362" y="-5" type="curve" smooth="yes"/>
			<point x="542" y="-5"/>
		</contour>
	</outline>
</glyph>
<glyph name="BU_wara.sm" format="2">
	<advance width="736"/>
	<anchor x="366" y="688" name="top"/>
	<note>
		uni118B7.sm
  </note>
	<outline>
		<contour>
			<point x="59" y="280" type="line"/>
			<point x="321" y="0" type="line"/>
			<point x="409" y="0" type="line"/>
			<point x="669" y="280" type="line"/>
			<point x="669" y="360" type="line"/>
			<point x="409" y="630" type="line"/>
			<point x="321" y="630" type="line"/>
			<point x="59" y="360" type="line"/>
		</contour>
		<contour>
			<point x="589" y="315" type="line"/>
			<point x="367" y="82" type="line"/>
			<point x="139" y="321" type="line"/>
			<point x="363" y="544" type="line"/>
		</contour>
	</outline>
</glyph>
<glyph name="ENY_wara.sm" format="2">
	<advance width="790"/>
	<anchor x="395" y="688" name="top"/>
	<note>
		uni118AD.sm
  </note>
	<outline>
		<contour>
			<point x="441" y="630" type="line"/>
			<point x="353" y="630" type="line"/>
			<point x="353" y="409" type="line"/>
			<point x="348" y="409" type="line"/>
			<point x="322" y="438"/>
			<point x="282" y="453"/>
			<point x="232" y="453" type="curve" smooth="yes"/>
			<point x="120" y="453"/>
			<point x="40" y="363"/>
			<point x="40" y="227" type="curve" smooth="yes"/>
			<point x="40" y="87"/>
			<point x="126" y="-5"/>
			<point x="240" y="-5" type="curve" smooth="yes"/>
			<point x="308" y="-5"/>
			<point x="367" y="28"/>
			<point x="392" y="95" type="curve"/>
			<point x="398" y="95" type="line"/>
			<point x="423" y="28"/>
			<point x="482" y="-5"/>
			<point x="550" y="-5" type="curve" smooth="yes"/>
			<point x="664" y="-5"/>
			<point x="750" y="87"/>
			<point x="750" y="227" type="curve" smooth="yes"/>
			<point x="750" y="363"/>
			<point x="674" y="453"/>
			<point x="562" y="453" type="curve" smooth="yes"/>
			<point x="512" y="453"/>
			<point x="472" y="438"/>
			<point x="446" y="409" type="curve"/>
			<point x="441" y="409" type="line"/>
		</contour>
		<contour>
			<point x="352" y="329"/>
			<point x="352" y="233" type="curve" smooth="yes"/>
			<point x="352" y="137"/>
			<point x="314" y="75"/>
			<point x="238" y="75" type="curve" smooth="yes"/>
			<point x="166" y="75"/>
			<point x="128" y="129"/>
			<point x="128" y="224" type="curve" smooth="yes"/>
			<point x="128" y="320"/>
			<point x="168" y="373"/>
			<point x="242" y="373" type="curve" smooth="yes"/>
			<point x="314" y="373"/>
		</contour>
		<contour>
			<point x="662" y="224" type="curve" smooth="yes"/>
			<point x="662" y="129"/>
			<point x="624" y="75"/>
			<point x="552" y="75" type="curve" smooth="yes"/>
			<point x="476" y="75"/>
			<point x="438" y="137"/>
			<point x="438" y="233" type="curve" smooth="yes"/>
			<point x="438" y="329"/>
			<point x="476" y="373"/>
			<point x="548" y="373" type="curve" smooth="yes"/>
			<point x="624" y="373"/>
			<point x="662" y="320"/>
		</contour>
	</outline>
</glyph>
<glyph name="E_wara.sm" format="2">
	<advance width="688"/>
	<anchor x="343" y="688" name="top"/>
	<note>
		uni118A8.sm
  </note>
	<outline>
		<contour>
			<point x="340" y="90" type="line"/>
			<point x="334" y="90" type="line"/>
			<point x="130" y="550" type="line"/>
			<point x="544" y="550" type="line"/>
		</contour>
		<contour>
			<point x="633" y="631" type="line"/>
			<point x="40" y="631" type="line"/>
			<point x="40" y="550" type="line"/>
			<point x="278" y="0" type="line"/>
			<point x="397" y="0" type="line"/>
			<point x="633" y="550" type="line"/>
		</contour>
	</outline>
</glyph>
<glyph name="HAR_wara.sm" format="2">
	<advance width="672"/>
	<anchor x="334" y="688" name="top"/>
	<note>
		uni118BC.sm
  </note>
	<outline>
		<contour>
			<point x="292" y="550" type="line"/>
			<point x="292" y="0" type="line"/>
			<point x="380" y="0" type="line"/>
			<point x="380" y="550" type="line"/>
			<point x="612" y="550" type="line"/>
			<point x="612" y="630" type="line"/>
			<point x="60" y="630" type="line"/>
			<point x="60" y="550" type="line"/>
		</contour>
	</outline>
</glyph>
<glyph name="HIYO_wara.sm" format="2">
	<advance width="769"/>
	<anchor x="346.68" y="688.477" name="top"/>
	<note>
		uni118B9.sm
  </note>
	<outline>
		<contour>
			<point x="572" y="509" type="line" smooth="yes"/>
			<point x="572" y="540"/>
			<point x="586" y="556"/>
			<point x="613" y="556" type="curve" smooth="yes"/>
			<point x="639" y="556"/>
			<point x="652" y="539"/>
			<point x="652" y="508" type="curve" smooth="yes"/>
			<point x="652" y="441" type="line"/>
			<point x="730" y="441" type="line"/>
			<point x="730" y="504" type="line" smooth="yes"/>
			<point x="730" y="578"/>
			<point x="691" y="636"/>
			<point x="613" y="636" type="curve" smooth="yes"/>
			<point x="527" y="636"/>
			<point x="484" y="578"/>
			<point x="484" y="504" type="curve" smooth="yes"/>
			<point x="484" y="240" type="line" smooth="yes"/>
			<point x="484" y="133"/>
			<point x="425" y="75"/>
			<point x="307" y="75" type="curve" smooth="yes"/>
			<point x="178" y="75"/>
			<point x="113" y="139"/>
			<point x="113" y="258" type="curve" smooth="yes"/>
			<point x="113" y="378"/>
			<point x="178" y="473"/>
			<point x="309" y="544" type="curve"/>
			<point x="364" y="544" type="line"/>
			<point x="364" y="624" type="line"/>
			<point x="23" y="624" type="line"/>
			<point x="23" y="544" type="line"/>
			<point x="171" y="544" type="line"/>
			<point x="74" y="466"/>
			<point x="25" y="366"/>
			<point x="25" y="245" type="curve" smooth="yes"/>
			<point x="25" y="78"/>
			<point x="123" y="-5"/>
			<point x="306" y="-5" type="curve" smooth="yes"/>
			<point x="487" y="-5"/>
			<point x="572" y="85"/>
			<point x="572" y="266" type="curve" smooth="yes"/>
		</contour>
	</outline>
</glyph>
<glyph name="II_wara.sm" format="2">
	<advance width="671"/>
	<anchor x="350" y="688" name="top"/>
	<note>
		uni118A6.sm
  </note>
	<outline>
		<contour>
			<point x="38" y="378" type="line"/>
			<point x="38" y="298" type="line"/>
			<point x="173" y="298" type="line"/>
			<point x="173" y="0" type="line"/>
			<point x="619" y="0" type="line"/>
			<point x="619" y="80" type="line"/>
			<point x="261" y="80" type="line"/>
			<point x="261" y="298" type="line"/>
			<point x="619" y="298" type="line"/>
			<point x="619" y="378" type="line"/>
			<point x="261" y="378" type="line"/>
			<point x="261" y="551" type="line"/>
			<point x="619" y="551" type="line"/>
			<point x="619" y="631" type="line"/>
			<point x="173" y="631" type="line"/>
			<point x="173" y="378" type="line"/>
		</contour>
	</outline>
</glyph>
<glyph name="KO_wara.sm" format="2">
	<advance width="639"/>
	<anchor x="310" y="688" name="top"/>
	<note>
		uni118AC.sm
  </note>
	<outline>
		<contour>
			<point x="429" y="267" type="line"/>
			<point x="429" y="80" type="line"/>
			<point x="40" y="80" type="line"/>
			<point x="40" y="0" type="line"/>
			<point x="517" y="0" type="line"/>
			<point x="517" y="267" type="line"/>
			<point x="613" y="267" type="line"/>
			<point x="613" y="347" type="line"/>
			<point x="517" y="347" type="line"/>
			<point x="517" y="630" type="line"/>
			<point x="53" y="630" type="line"/>
			<point x="53" y="267" type="line"/>
		</contour>
		<contour>
			<point x="429" y="347" type="line"/>
			<point x="141" y="347" type="line"/>
			<point x="141" y="550" type="line"/>
			<point x="429" y="550" type="line"/>
		</contour>
	</outline>
</glyph>
<glyph name="NUNG_wara.sm" format="2">
	<advance width="716"/>
	<anchor x="309" y="688" name="top"/>
	<note>
		uni118B3.sm
  </note>
	<outline>
		<contour>
			<point x="662" y="113" type="line"/>
			<point x="618" y="187" type="line"/>
			<point x="465" y="99" type="line"/>
			<point x="465" y="630" type="line"/>
			<point x="389" y="630" type="line"/>
			<point x="126" y="434" type="line"/>
			<point x="91" y="479" type="line"/>
			<point x="28" y="430" type="line"/>
			<point x="149" y="266" type="line"/>
			<point x="219" y="315" type="line"/>
			<point x="174" y="372" type="line"/>
			<point x="377" y="521" type="line"/>
			<point x="377" y="0" type="line"/>
			<point x="461" y="0" type="line"/>
		</contour>
	</outline>
</glyph>
<glyph name="O_wara.sm" format="2">
	<advance width="611"/>
	<anchor x="307" y="688" name="top"/>
	<note>
		uni118A9.sm
  </note>
	<outline>
		<contour>
			<point x="435" y="551" type="line"/>
			<point x="70" y="71" type="line"/>
			<point x="70" y="0" type="line"/>
			<point x="563" y="0" type="line"/>
			<point x="563" y="81" type="line"/>
			<point x="185" y="81" type="line"/>
			<point x="544" y="560" type="line"/>
			<point x="544" y="631" type="line"/>
			<point x="70" y="631" type="line"/>
			<point x="70" y="551" type="line"/>
		</contour>
	</outline>
</glyph>
<glyph name="WI_wara.sm" format="2">
	<advance width="658"/>
	<anchor x="347" y="688" name="top"/>
	<note>
		uni118A2.sm
  </note>
	<outline>
		<contour>
			<point x="42" y="314" type="line"/>
			<point x="42" y="234" type="line"/>
			<point x="178" y="234" type="line"/>
			<point x="178" y="0" type="line"/>
			<point x="266" y="0" type="line"/>
			<point x="266" y="234" type="line"/>
			<point x="608" y="234" type="line"/>
			<point x="608" y="314" type="line"/>
			<point x="266" y="314" type="line"/>
			<point x="266" y="551" type="line"/>
			<point x="607" y="551" type="line"/>
			<point x="607" y="631" type="line"/>
			<point x="178" y="631" type="line"/>
			<point x="178" y="314" type="line"/>
		</contour>
	</outline>
</glyph>
<glyph name="YA_wara.sm" format="2">
	<advance width="645"/>
	<anchor x="318" y="688" name="top"/>
	<note>
		uni118A4.sm
  </note>
	<outline>
		<contour>
			<point x="314" y="379" type="line"/>
			<point x="139" y="631" type="line"/>
			<point x="37" y="631" type="line"/>
			<point x="271" y="290" type="line"/>
			<point x="271" y="81" type="line"/>
			<point x="74" y="81" type="line"/>
			<point x="74" y="0" type="line"/>
			<point x="359" y="0" type="line"/>
			<point x="359" y="290" type="line"/>
			<point x="603" y="631" type="line"/>
			<point x="501" y="631" type="line"/>
			<point x="320" y="379" type="line"/>
		</contour>
	</outline>
</glyph>
<glyph name="YO_wara.sm" format="2">
	<advance width="743"/>
	<anchor x="366" y="688" name="top"/>
	<note>
		uni118A5.sm
  </note>
	<outline>
		<contour>
			<point x="35" y="72" type="line"/>
			<point x="35" y="0" type="line"/>
			<point x="217" y="0" type="line"/>
			<point x="217" y="276" type="line"/>
			<point x="526" y="276" type="line"/>
			<point x="526" y="72" type="line"/>
			<point x="395" y="72" type="line"/>
			<point x="395" y="0" type="line"/>
			<point x="614" y="0" type="line"/>
			<point x="614" y="559" type="line"/>
			<point x="708" y="559" type="line"/>
			<point x="708" y="631" type="line"/>
			<point x="526" y="631" type="line"/>
			<point x="526" y="356" type="line"/>
			<point x="217" y="356" type="line"/>
			<point x="217" y="559" type="line"/>
			<point x="358" y="559" type="line"/>
			<point x="358" y="631" type="line"/>
			<point x="129" y="631" type="line"/>
			<point x="129" y="72" type="line"/>
		</contour>
	</outline>
</glyph>
<glyph name="YUJ_wara.sm" format="2">
	<advance width="598"/>
	<anchor x="304.199" y="688.477" name="top"/>
	<note>
		uni118AE.sm
  </note>
	<outline>
		<contour>
			<point x="68" y="0" type="line"/>
			<point x="533" y="0" type="line"/>
			<point x="533" y="80" type="line"/>
			<point x="156" y="80" type="line"/>
			<point x="156" y="287" type="line"/>
			<point x="535" y="287" type="line"/>
			<point x="535" y="367" type="line"/>
			<point x="156" y="367" type="line"/>
			<point x="156" y="550" type="line"/>
			<point x="533" y="550" type="line"/>
			<point x="533" y="630" type="line"/>
			<point x="68" y="630" type="line"/>
		</contour>
	</outline>
</glyph>
<glyph name="a_wara.sm" format="2">
	<advance width="392"/>
	<anchor x="227" y="547" name="top"/>
	<note>
		uni118C1.sm
  </note>
	<outline>
		<contour>
			<point x="155" y="143" type="line" smooth="yes"/>
			<point x="155" y="96"/>
			<point x="138" y="72"/>
			<point x="103" y="72" type="curve" smooth="yes"/>
			<point x="50" y="72" type="line"/>
			<point x="50" y="0" type="line"/>
			<point x="105" y="0" type="line" smooth="yes"/>
			<point x="194" y="0"/>
			<point x="243" y="52"/>
			<point x="243" y="157" type="curve" smooth="yes"/>
			<point x="243" y="351" type="line" smooth="yes"/>
			<point x="243" y="398"/>
			<point x="262" y="422"/>
			<point x="301" y="422" type="curve" smooth="yes"/>
			<point x="342" y="422" type="line"/>
			<point x="342" y="494" type="line"/>
			<point x="309" y="494" type="line" smooth="yes"/>
			<point x="209" y="494"/>
			<point x="155" y="444"/>
			<point x="155" y="343" type="curve" smooth="yes"/>
		</contour>
	</outline>
</glyph>
<glyph name="am_wara.sm" format="2">
	<advance width="558"/>
	<anchor x="263" y="547" name="top"/>
	<note>
		uni118D6.sm
  </note>
	<outline>
		<contour>
			<point x="333" y="192" type="line"/>
			<point x="238" y="233"/>
			<point x="178" y="262"/>
			<point x="122" y="305" type="curve"/>
			<point x="186" y="355"/>
			<point x="260" y="390"/>
			<point x="333" y="411" type="curve"/>
		</contour>
		<contour>
			<point x="332" y="112" type="curve"/>
			<point x="326" y="87"/>
			<point x="303" y="72"/>
			<point x="262" y="72" type="curve" smooth="yes"/>
			<point x="40" y="72" type="line"/>
			<point x="40" y="0" type="line"/>
			<point x="268" y="0" type="line" smooth="yes"/>
			<point x="335" y="0"/>
			<point x="393" y="25"/>
			<point x="415" y="74" type="curve"/>
			<point x="438" y="55"/>
			<point x="454" y="30"/>
			<point x="462" y="1" type="curve"/>
			<point x="528" y="24" type="line"/>
			<point x="507" y="87"/>
			<point x="469" y="131"/>
			<point x="421" y="158" type="curve"/>
			<point x="421" y="491" type="line"/>
			<point x="339" y="491" type="line"/>
			<point x="202" y="441"/>
			<point x="118" y="394"/>
			<point x="53" y="339" type="curve"/>
			<point x="53" y="267" type="line"/>
			<point x="112" y="217"/>
			<point x="206" y="163"/>
		</contour>
	</outline>
</glyph>
<glyph name="ang_wara.sm" format="2">
	<advance width="555"/>
	<anchor x="255" y="547" name="top"/>
	<note>
		uni118CA.sm
  </note>
	<outline>
		<contour>
			<point x="338" y="58"/>
			<point x="244" y="58" type="curve" smooth="yes"/>
			<point x="165" y="58"/>
			<point x="128" y="74"/>
			<point x="128" y="102" type="curve" smooth="yes"/>
			<point x="128" y="132"/>
			<point x="170" y="146"/>
			<point x="248" y="146" type="curve" smooth="yes"/>
			<point x="318" y="146"/>
			<point x="362" y="133"/>
			<point x="402" y="117" type="curve"/>
			<point x="387" y="75"/>
		</contour>
		<contour>
			<point x="247" y="499" type="curve" smooth="yes"/>
			<point x="200" y="499"/>
			<point x="153" y="493"/>
			<point x="105" y="481" type="curve"/>
			<point x="119" y="415" type="line"/>
			<point x="170" y="423"/>
			<point x="211" y="427"/>
			<point x="241" y="427" type="curve" smooth="yes"/>
			<point x="298" y="427"/>
			<point x="327" y="408"/>
			<point x="327" y="382" type="curve" smooth="yes"/>
			<point x="327" y="359"/>
			<point x="303" y="345"/>
			<point x="255" y="342" type="curve" smooth="yes"/>
			<point x="138" y="335" type="line"/>
			<point x="142" y="263" type="line"/>
			<point x="297" y="270" type="line" smooth="yes"/>
			<point x="377" y="274"/>
			<point x="417" y="239"/>
			<point x="417" y="186" type="curve" smooth="yes"/>
			<point x="417" y="181"/>
			<point x="417" y="175"/>
			<point x="417" y="170" type="curve"/>
			<point x="376" y="199"/>
			<point x="318" y="218"/>
			<point x="239" y="218" type="curve" smooth="yes"/>
			<point x="126" y="218"/>
			<point x="40" y="173"/>
			<point x="40" y="99" type="curve" smooth="yes"/>
			<point x="40" y="25"/>
			<point x="127" y="-14"/>
			<point x="245" y="-14" type="curve" smooth="yes"/>
			<point x="410" y="-14"/>
			<point x="505" y="69"/>
			<point x="505" y="177" type="curve" smooth="yes"/>
			<point x="505" y="254"/>
			<point x="455" y="314"/>
			<point x="377" y="333" type="curve"/>
			<point x="377" y="339" type="line"/>
			<point x="400" y="359"/>
			<point x="415" y="379"/>
			<point x="415" y="407" type="curve" smooth="yes"/>
			<point x="415" y="463"/>
			<point x="351" y="499"/>
		</contour>
	</outline>
</glyph>
<glyph name="bu_wara.sm" format="2">
	<advance width="660"/>
	<anchor x="329" y="547" name="top"/>
	<note>
		uni118D7.sm
  </note>
	<outline>
		<contour>
			<point x="620" y="287" type="line"/>
			<point x="375" y="508" type="line"/>
			<point x="285" y="508" type="line"/>
			<point x="40" y="287" type="line"/>
			<point x="40" y="222" type="line"/>
			<point x="285" y="1" type="line"/>
			<point x="375" y="1" type="line"/>
			<point x="620" y="222" type="line"/>
		</contour>
		<contour>
			<point x="537" y="250" type="curve"/>
			<point x="337" y="77" type="line"/>
			<point x="323" y="77" type="line"/>
			<point x="123" y="250" type="line"/>
			<point x="123" y="259" type="line"/>
			<point x="323" y="432" type="line"/>
			<point x="337" y="432" type="line"/>
			<point x="537" y="259" type="line"/>
			<point x="537" y="253"/>
			<point x="537" y="250"/>
		</contour>
	</outline>
</glyph>
<glyph name="da_wara.sm" format="2">
	<advance width="868"/>
	<anchor x="424" y="547" name="top"/>
	<note>
		uni118D4.sm
  </note>
	<outline>
		<contour>
			<point x="359" y="420" type="curve" smooth="yes"/>
			<point x="477" y="186" type="line" smooth="yes"/>
			<point x="517" y="106"/>
			<point x="577" y="68"/>
			<point x="646" y="68" type="curve" smooth="yes"/>
			<point x="754" y="68"/>
			<point x="831" y="168"/>
			<point x="831" y="297" type="curve" smooth="yes"/>
			<point x="831" y="420"/>
			<point x="760" y="503"/>
			<point x="658" y="503" type="curve" smooth="yes"/>
			<point x="582" y="503"/>
			<point x="517" y="459"/>
			<point x="489" y="338" type="curve" smooth="yes"/>
			<point x="456" y="194" type="line" smooth="yes"/>
			<point x="440" y="125"/>
			<point x="396" y="67"/>
			<point x="336" y="67" type="curve" smooth="yes"/>
			<point x="300" y="67"/>
			<point x="253" y="86"/>
			<point x="231" y="146" type="curve" smooth="yes"/>
			<point x="139" y="401" type="line" smooth="yes"/>
			<point x="122" y="447"/>
			<point x="91" y="473"/>
			<point x="40" y="476" type="curve"/>
			<point x="24" y="420" type="line"/>
			<point x="45" y="420"/>
			<point x="58" y="405"/>
			<point x="69" y="374" type="curve" smooth="yes"/>
			<point x="151" y="136" type="line" smooth="yes"/>
			<point x="181" y="49"/>
			<point x="252" y="-5"/>
			<point x="337" y="-5" type="curve" smooth="yes"/>
			<point x="465" y="-5"/>
			<point x="519" y="116"/>
			<point x="543" y="232" type="curve" smooth="yes"/>
			<point x="555" y="291" type="line" smooth="yes"/>
			<point x="575" y="391"/>
			<point x="610" y="431"/>
			<point x="657" y="431" type="curve" smooth="yes"/>
			<point x="714" y="431"/>
			<point x="743" y="366"/>
			<point x="743" y="297" type="curve" smooth="yes"/>
			<point x="743" y="220"/>
			<point x="708" y="140"/>
			<point x="646" y="140" type="curve" smooth="yes"/>
			<point x="610" y="140"/>
			<point x="559" y="168"/>
			<point x="511" y="266" type="curve" smooth="yes"/>
			<point x="416" y="461" type="line" smooth="yes"/>
			<point x="400" y="494"/>
			<point x="369" y="506"/>
			<point x="331" y="506" type="curve"/>
			<point x="315" y="450" type="line"/>
			<point x="335" y="445"/>
			<point x="350" y="437"/>
		</contour>
	</outline>
</glyph>
<glyph name="enn_wara.sm" format="2">
	<advance width="676"/>
	<anchor x="348" y="547" name="top"/>
	<note>
		uni118D0.sm
  </note>
	<outline>
		<contour>
			<point x="171" y="362" type="line" smooth="yes"/>
			<point x="171" y="403"/>
			<point x="192" y="422"/>
			<point x="224" y="422" type="curve" smooth="yes"/>
			<point x="256" y="422"/>
			<point x="270" y="402"/>
			<point x="278" y="360" type="curve" smooth="yes"/>
			<point x="327" y="106" type="line" smooth="yes"/>
			<point x="340" y="36"/>
			<point x="376" y="-4"/>
			<point x="456" y="-4" type="curve" smooth="yes"/>
			<point x="539" y="-4"/>
			<point x="593" y="39"/>
			<point x="593" y="125" type="curve" smooth="yes"/>
			<point x="593" y="393" type="line" smooth="yes"/>
			<point x="593" y="410"/>
			<point x="599" y="419"/>
			<point x="612" y="419" type="curve" smooth="yes"/>
			<point x="636" y="419" type="line"/>
			<point x="636" y="491" type="line"/>
			<point x="596" y="491" type="line" smooth="yes"/>
			<point x="539" y="491"/>
			<point x="505" y="452"/>
			<point x="505" y="373" type="curve" smooth="yes"/>
			<point x="505" y="111" type="line" smooth="yes"/>
			<point x="505" y="82"/>
			<point x="483" y="68"/>
			<point x="457" y="68" type="curve" smooth="yes"/>
			<point x="429" y="68"/>
			<point x="415" y="84"/>
			<point x="409" y="116" type="curve" smooth="yes"/>
			<point x="361" y="387" type="line" smooth="yes"/>
			<point x="348" y="458"/>
			<point x="292" y="494"/>
			<point x="225" y="494" type="curve" smooth="yes"/>
			<point x="144" y="494"/>
			<point x="83" y="441"/>
			<point x="83" y="356" type="curve" smooth="yes"/>
			<point x="83" y="99" type="line" smooth="yes"/>
			<point x="83" y="81"/>
			<point x="77" y="72"/>
			<point x="64" y="72" type="curve" smooth="yes"/>
			<point x="40" y="72" type="line"/>
			<point x="40" y="0" type="line"/>
			<point x="79" y="0" type="line" smooth="yes"/>
			<point x="137" y="0"/>
			<point x="171" y="39"/>
			<point x="171" y="117" type="curve" smooth="yes"/>
		</contour>
	</outline>
</glyph>
<glyph name="ga_wara.sm" format="2">
	<advance width="625"/>
	<anchor x="316" y="547" name="top"/>
	<note>
		uni118CB.sm
  </note>
	<outline>
		<contour>
			<point x="458" y="422" type="line"/>
			<point x="425" y="471"/>
			<point x="366" y="496"/>
			<point x="281" y="496" type="curve" smooth="yes"/>
			<point x="164" y="496"/>
			<point x="91" y="439"/>
			<point x="91" y="326" type="curve" smooth="yes"/>
			<point x="91" y="115" type="line" smooth="yes"/>
			<point x="91" y="86"/>
			<point x="80" y="72"/>
			<point x="58" y="72" type="curve" smooth="yes"/>
			<point x="40" y="72" type="line"/>
			<point x="40" y="0" type="line"/>
			<point x="73" y="0" type="line" smooth="yes"/>
			<point x="140" y="0"/>
			<point x="179" y="36"/>
			<point x="179" y="109" type="curve" smooth="yes"/>
			<point x="179" y="335" type="line" smooth="yes"/>
			<point x="179" y="392"/>
			<point x="222" y="424"/>
			<point x="296" y="424" type="curve" smooth="yes"/>
			<point x="385" y="424"/>
			<point x="439" y="376"/>
			<point x="439" y="287" type="curve" smooth="yes"/>
			<point x="439" y="0" type="line"/>
			<point x="527" y="0" type="line"/>
			<point x="527" y="328" type="line" smooth="yes"/>
			<point x="527" y="386"/>
			<point x="544" y="429"/>
			<point x="579" y="429" type="curve" smooth="yes"/>
			<point x="585" y="429" type="line"/>
			<point x="585" y="501" type="line"/>
			<point x="570" y="501" type="line" smooth="yes"/>
			<point x="521" y="501"/>
			<point x="480" y="475"/>
			<point x="463" y="422" type="curve"/>
		</contour>
	</outline>
</glyph>
<glyph name="har_wara.sm" format="2">
	<advance width="504"/>
	<anchor x="250" y="547" name="top"/>
	<note>
		uni118DC.sm
  </note>
	<outline>
		<contour>
			<point x="325" y="368" type="curve"/>
			<point x="368" y="397"/>
			<point x="411" y="427"/>
			<point x="454" y="456" type="curve"/>
			<point x="410" y="521" type="line"/>
			<point x="381" y="498"/>
			<point x="330" y="462"/>
			<point x="257" y="412" type="curve"/>
			<point x="202" y="445"/>
			<point x="147" y="482"/>
			<point x="94" y="521" type="curve"/>
			<point x="50" y="456" type="line"/>
			<point x="59" y="449"/>
			<point x="105" y="420"/>
			<point x="188" y="368" type="curve"/>
			<point x="125" y="315"/>
			<point x="93" y="251"/>
			<point x="93" y="174" type="curve" smooth="yes"/>
			<point x="93" y="68"/>
			<point x="147" y="-5"/>
			<point x="256" y="-5" type="curve" smooth="yes"/>
			<point x="365" y="-5"/>
			<point x="419" y="68"/>
			<point x="419" y="174" type="curve" smooth="yes"/>
			<point x="419" y="251"/>
			<point x="388" y="316"/>
		</contour>
		<contour>
			<point x="256" y="331" type="curve"/>
			<point x="312" y="302"/>
			<point x="340" y="250"/>
			<point x="340" y="175" type="curve" smooth="yes"/>
			<point x="340" y="111"/>
			<point x="312" y="64"/>
			<point x="256" y="64" type="curve" smooth="yes"/>
			<point x="200" y="64"/>
			<point x="172" y="111"/>
			<point x="172" y="176" type="curve" smooth="yes"/>
			<point x="172" y="247"/>
			<point x="200" y="298"/>
		</contour>
	</outline>
</glyph>
<glyph name="hiyo_wara.sm" format="2">
	<advance width="746"/>
	<anchor x="372" y="547" name="top"/>
	<note>
		uni118D9.sm
  </note>
	<outline>
		<contour>
			<point x="696" y="327" type="line" smooth="yes"/>
			<point x="696" y="442"/>
			<point x="635" y="499"/>
			<point x="512" y="499" type="curve" smooth="yes"/>
			<point x="391" y="499"/>
			<point x="330" y="440"/>
			<point x="330" y="322" type="curve" smooth="yes"/>
			<point x="330" y="176" type="line" smooth="yes"/>
			<point x="330" y="103"/>
			<point x="298" y="67"/>
			<point x="235" y="67" type="curve" smooth="yes"/>
			<point x="170" y="67"/>
			<point x="137" y="99"/>
			<point x="137" y="164" type="curve" smooth="yes"/>
			<point x="137" y="308" type="line" smooth="yes"/>
			<point x="137" y="388"/>
			<point x="150" y="444"/>
			<point x="159" y="476" type="curve"/>
			<point x="82" y="497" type="line"/>
			<point x="65" y="454"/>
			<point x="50" y="395"/>
			<point x="50" y="320" type="curve" smooth="yes"/>
			<point x="50" y="168" type="line" smooth="yes"/>
			<point x="50" y="53"/>
			<point x="111" y="-5"/>
			<point x="234" y="-5" type="curve" smooth="yes"/>
			<point x="354" y="-5"/>
			<point x="414" y="55"/>
			<point x="414" y="176" type="curve" smooth="yes"/>
			<point x="414" y="326" type="line" smooth="yes"/>
			<point x="414" y="392"/>
			<point x="449" y="425"/>
			<point x="520" y="425" type="curve" smooth="yes"/>
			<point x="579" y="425"/>
			<point x="609" y="393"/>
			<point x="609" y="330" type="curve" smooth="yes"/>
			<point x="609" y="186" type="line" smooth="yes"/>
			<point x="609" y="112"/>
			<point x="603" y="55"/>
			<point x="592" y="14" type="curve"/>
			<point x="671" y="-3" type="line"/>
			<point x="685" y="41"/>
			<point x="696" y="102"/>
			<point x="696" y="189" type="curve" smooth="yes"/>
		</contour>
	</outline>
</glyph>
<glyph name="holo_wara.sm" format="2">
	<advance width="610"/>
	<anchor x="318" y="547" name="top"/>
	<note>
		uni118DA.sm
  </note>
	<outline>
		<contour>
			<point x="106" y="193" type="curve"/>
			<point x="104" y="207" type="line"/>
			<point x="40" y="192" type="line"/>
			<point x="58" y="61"/>
			<point x="146" y="-5"/>
			<point x="304" y="-5" type="curve" smooth="yes"/>
			<point x="475" y="-5"/>
			<point x="560" y="93"/>
			<point x="560" y="225" type="curve" smooth="yes"/>
			<point x="560" y="390"/>
			<point x="472" y="491"/>
			<point x="293" y="505" type="curve" smooth="yes"/>
			<point x="120" y="519" type="line"/>
			<point x="113" y="445" type="line"/>
			<point x="297" y="430" type="line" smooth="yes"/>
			<point x="419" y="420"/>
			<point x="480" y="352"/>
			<point x="480" y="223" type="curve" smooth="yes"/>
			<point x="480" y="118"/>
			<point x="418" y="67"/>
			<point x="295" y="67" type="curve" smooth="yes"/>
			<point x="220" y="67"/>
			<point x="169" y="86"/>
			<point x="142" y="121" type="curve"/>
			<point x="146" y="127" type="line"/>
			<point x="169" y="124"/>
			<point x="190" y="123"/>
			<point x="209" y="123" type="curve" smooth="yes"/>
			<point x="314" y="123"/>
			<point x="366" y="165"/>
			<point x="366" y="250" type="curve" smooth="yes"/>
			<point x="366" y="337"/>
			<point x="311" y="381"/>
			<point x="201" y="381" type="curve" smooth="yes"/>
			<point x="140" y="381"/>
			<point x="88" y="367"/>
			<point x="47" y="338" type="curve"/>
			<point x="77" y="279" type="line"/>
			<point x="113" y="300"/>
			<point x="153" y="310"/>
			<point x="196" y="310" type="curve" smooth="yes"/>
			<point x="259" y="310"/>
			<point x="290" y="288"/>
			<point x="290" y="247" type="curve" smooth="yes"/>
			<point x="290" y="206"/>
			<point x="256" y="186"/>
			<point x="188" y="186" type="curve" smooth="yes"/>
			<point x="150" y="186"/>
			<point x="123" y="188"/>
		</contour>
	</outline>
</glyph>
<glyph name="ii_wara.sm" format="2">
	<advance width="529"/>
	<anchor x="229" y="547" name="top"/>
	<note>
		uni118C6.sm
  </note>
	<outline>
		<contour>
			<point x="61" y="387" type="line"/>
			<point x="109" y="407"/>
			<point x="158" y="425"/>
			<point x="212" y="425" type="curve" smooth="yes"/>
			<point x="290" y="425"/>
			<point x="340" y="387"/>
			<point x="331" y="325" type="curve" smooth="yes"/>
			<point x="282" y="0" type="line"/>
			<point x="367" y="0" type="line"/>
			<point x="415" y="321" type="line" smooth="yes"/>
			<point x="434" y="445"/>
			<point x="358" y="497"/>
			<point x="222" y="497" type="curve" smooth="yes"/>
			<point x="134" y="497"/>
			<point x="80" y="475"/>
			<point x="28" y="448" type="curve"/>
		</contour>
		<contour>
			<point x="47" y="254" type="line"/>
			<point x="47" y="181" type="line"/>
			<point x="489" y="182" type="line"/>
			<point x="489" y="254" type="line"/>
		</contour>
	</outline>
</glyph>
<glyph name="ngaa_wara.abv" format="2">
	<advance width="0"/>
	<anchor x="0" y="0" name="_top"/>
	<note>
		uni118C0.abv
  </note>
	<outline>
		<contour>
			<point x="-2" y="67" type="curve" smooth="yes"/>
			<point x="-34" y="67"/>
			<point x="-53" y="104"/>
			<point x="-58" y="167" type="curve" smooth="yes"/>
			<point x="-70" y="306" type="line" smooth="yes"/>
			<point x="-77" y="385"/>
			<point x="-114" y="424"/>
			<point x="-182" y="424" type="curve" smooth="yes"/>
			<point x="-241" y="424" type="line"/>
			<point x="-241" y="352" type="line"/>
			<point x="-192" y="352" type="line" smooth="yes"/>
			<point x="-166" y="352"/>
			<point x="-152" y="332"/>
			<point x="-150" y="301" type="curve" smooth="yes"/>
			<point x="-140" y="164" type="line" smooth="yes"/>
			<point x="-132" y="52"/>
			<point x="-86" y="-4"/>
			<point x="-2" y="-5" type="curve" smooth="yes"/>
			<point x="63" y="-5"/>
			<point x="108" y="38"/>
			<point x="134" y="125" type="curve" smooth="yes"/>
			<point x="222" y="424" type="line"/>
			<point x="132" y="424" type="line"/>
			<point x="53" y="143" type="line" smooth="yes"/>
			<point x="40" y="96"/>
			<point x="21" y="67"/>
		</contour>
	</outline>
</glyph>
<glyph name="nung_wara.sm" format="2">
	<advance width="683"/>
	<anchor x="287" y="547" name="top"/>
	<note>
		uni118D3.sm
  </note>
	<outline>
		<contour>
			<point x="123" y="458" type="line"/>
			<point x="50" y="458" type="line"/>
			<point x="50" y="130" type="line"/>
			<point x="138" y="130" type="line"/>
			<point x="138" y="206" type="line"/>
			<point x="145" y="281"/>
			<point x="181" y="325"/>
			<point x="246" y="340" type="curve" smooth="yes"/>
			<point x="301" y="353"/>
			<point x="336" y="363"/>
			<point x="352" y="373" type="curve"/>
			<point x="357" y="373" type="line"/>
			<point x="353" y="169"/>
			<point x="352" y="155"/>
			<point x="352" y="130" type="curve" smooth="yes"/>
			<point x="352" y="40"/>
			<point x="407" y="-5"/>
			<point x="510" y="-5" type="curve" smooth="yes"/>
			<point x="569" y="-5"/>
			<point x="613" y="10"/>
			<point x="643" y="39" type="curve"/>
			<point x="606" y="100" type="line"/>
			<point x="579" y="78"/>
			<point x="548" y="67"/>
			<point x="515" y="67" type="curve" smooth="yes"/>
			<point x="474" y="67"/>
			<point x="440" y="80"/>
			<point x="441" y="123" type="curve" smooth="yes"/>
			<point x="446" y="491" type="line"/>
			<point x="366" y="491" type="line"/>
			<point x="366" y="463"/>
			<point x="328" y="439"/>
			<point x="255" y="419" type="curve" smooth="yes"/>
			<point x="202" y="405"/>
			<point x="164" y="382"/>
			<point x="143" y="351" type="curve"/>
			<point x="138" y="351" type="line"/>
		</contour>
	</outline>
</glyph>
<glyph name="o_wara.sm" format="2">
	<advance width="553"/>
	<anchor x="267" y="547" name="top"/>
	<note>
		uni118C9.sm
  </note>
	<outline>
		<contour>
			<point x="397" y="375" type="curve" smooth="yes"/>
			<point x="397" y="349"/>
			<point x="369" y="329"/>
			<point x="314" y="311" type="curve" smooth="yes"/>
			<point x="191" y="271" type="line" smooth="yes"/>
			<point x="99" y="241"/>
			<point x="50" y="193"/>
			<point x="50" y="125" type="curve" smooth="yes"/>
			<point x="50" y="39"/>
			<point x="130" y="-5"/>
			<point x="275" y="-5" type="curve" smooth="yes"/>
			<point x="368" y="-5"/>
			<point x="446" y="15"/>
			<point x="503" y="46" type="curve"/>
			<point x="468" y="109" type="line"/>
			<point x="409" y="81"/>
			<point x="343" y="67"/>
			<point x="274" y="67" type="curve" smooth="yes"/>
			<point x="182" y="67"/>
			<point x="130" y="91"/>
			<point x="130" y="128" type="curve" smooth="yes"/>
			<point x="130" y="157"/>
			<point x="162" y="180"/>
			<point x="225" y="201" type="curve" smooth="yes"/>
			<point x="343" y="241" type="line" smooth="yes"/>
			<point x="431" y="271"/>
			<point x="477" y="312"/>
			<point x="477" y="376" type="curve" smooth="yes"/>
			<point x="477" y="455"/>
			<point x="405" y="499"/>
			<point x="264" y="499" type="curve" smooth="yes"/>
			<point x="195" y="499"/>
			<point x="140" y="490"/>
			<point x="83" y="471" type="curve"/>
			<point x="104" y="397" type="line"/>
			<point x="160" y="418"/>
			<point x="207" y="427"/>
			<point x="269" y="427" type="curve" smooth="yes"/>
			<point x="352" y="427"/>
			<point x="397" y="408"/>
		</contour>
	</outline>
</glyph>
<glyph name="odd_wara.sm" format="2">
	<advance width="376"/>
	<anchor x="175" y="547" name="top"/>
	<note>
		uni118D1.sm
  </note>
	<outline>
		<contour>
			<point x="326" y="501" type="line"/>
			<point x="251" y="501" type="line"/>
			<point x="236" y="364" type="line"/>
			<point x="50" y="291" type="line"/>
			<point x="50" y="0" type="line"/>
			<point x="138" y="0" type="line"/>
			<point x="138" y="236" type="line"/>
			<point x="264" y="287" type="line" smooth="yes"/>
			<point x="305" y="304"/>
			<point x="326" y="333"/>
			<point x="326" y="376" type="curve" smooth="yes"/>
		</contour>
	</outline>
</glyph>
<glyph name="pu_wara.sm" format="2">
	<advance width="661"/>
	<anchor x="326" y="547" name="top"/>
	<note>
		uni118D8.sm
  </note>
	<outline>
		<contour>
			<point x="330" y="-4" type="curve" smooth="yes"/>
			<point x="464" y="-4"/>
			<point x="534" y="55"/>
			<point x="541" y="173" type="curve" smooth="yes"/>
			<point x="551" y="353" type="line" smooth="yes"/>
			<point x="553" y="392"/>
			<point x="571" y="411"/>
			<point x="603" y="411" type="curve" smooth="yes"/>
			<point x="621" y="411" type="line"/>
			<point x="621" y="494" type="line"/>
			<point x="596" y="494" type="line" smooth="yes"/>
			<point x="516" y="494"/>
			<point x="474" y="447"/>
			<point x="468" y="354" type="curve" smooth="yes"/>
			<point x="457" y="169" type="line" smooth="yes"/>
			<point x="453" y="104"/>
			<point x="411" y="72"/>
			<point x="330" y="72" type="curve" smooth="yes"/>
			<point x="250" y="72"/>
			<point x="208" y="104"/>
			<point x="204" y="169" type="curve" smooth="yes"/>
			<point x="193" y="354" type="line" smooth="yes"/>
			<point x="187" y="447"/>
			<point x="144" y="494"/>
			<point x="65" y="494" type="curve" smooth="yes"/>
			<point x="40" y="494" type="line"/>
			<point x="40" y="411" type="line"/>
			<point x="58" y="411" type="line" smooth="yes"/>
			<point x="90" y="411"/>
			<point x="108" y="392"/>
			<point x="110" y="353" type="curve" smooth="yes"/>
			<point x="120" y="173" type="line" smooth="yes"/>
			<point x="127" y="55"/>
			<point x="197" y="-4"/>
		</contour>
	</outline>
</glyph>
<glyph name="sii_wara.sm" format="2">
	<advance width="645"/>
	<anchor x="290" y="547" name="top"/>
	<note>
		uni118DE.sm
  </note>
	<outline>
		<contour>
			<point x="312" y="221" type="curve" smooth="yes"/>
			<point x="401" y="200"/>
			<point x="440" y="197"/>
			<point x="463" y="197" type="curve" smooth="yes"/>
			<point x="535" y="197"/>
			<point x="575" y="237"/>
			<point x="586" y="316" type="curve" smooth="yes"/>
			<point x="606" y="463" type="line"/>
			<point x="525" y="473" type="line"/>
			<point x="504" y="321" type="line" smooth="yes"/>
			<point x="499" y="288"/>
			<point x="481" y="272"/>
			<point x="454" y="272" type="curve" smooth="yes"/>
			<point x="432" y="272"/>
			<point x="378" y="284"/>
			<point x="264" y="308" type="curve" smooth="yes"/>
			<point x="146" y="333"/>
			<point x="50" y="284"/>
			<point x="50" y="177" type="curve" smooth="yes"/>
			<point x="50" y="62"/>
			<point x="159" y="33"/>
			<point x="297" y="16" type="curve" smooth="yes"/>
			<point x="367" y="7"/>
			<point x="449" y="2"/>
			<point x="543" y="1" type="curve"/>
			<point x="545" y="74" type="line"/>
			<point x="474" y="74"/>
			<point x="396" y="78"/>
			<point x="313" y="86" type="curve" smooth="yes"/>
			<point x="186" y="99"/>
			<point x="123" y="117"/>
			<point x="123" y="177" type="curve" smooth="yes"/>
			<point x="123" y="213"/>
			<point x="150" y="243"/>
			<point x="202" y="243" type="curve" smooth="yes"/>
			<point x="229" y="243"/>
			<point x="252" y="235"/>
		</contour>
		<contour>
			<point x="335" y="190" type="line" smooth="yes"/>
			<point x="364" y="308"/>
			<point x="365" y="304"/>
			<point x="365" y="343" type="curve" smooth="yes"/>
			<point x="365" y="428"/>
			<point x="312" y="484"/>
			<point x="196" y="496" type="curve" smooth="yes"/>
			<point x="127" y="503" type="line"/>
			<point x="119" y="431" type="line"/>
			<point x="186" y="424" type="line" smooth="yes"/>
			<point x="258" y="416"/>
			<point x="290" y="387"/>
			<point x="290" y="331" type="curve" smooth="yes"/>
			<point x="290" y="298"/>
			<point x="284" y="302"/>
			<point x="256" y="191" type="curve" smooth="yes"/>
			<point x="246" y="151" type="line"/>
			<point x="321" y="133" type="line"/>
		</contour>
	</outline>
</glyph>
<glyph name="ssuu_wara.sm" format="2">
	<advance width="512"/>
	<anchor x="270" y="547" name="top"/>
	<note>
		uni118DD.sm
  </note>
	<outline>
		<contour>
			<point x="248" y="316" type="line" smooth="yes"/>
			<point x="214" y="316"/>
			<point x="190" y="343"/>
			<point x="176" y="397" type="curve" smooth="yes"/>
			<point x="161" y="455"/>
			<point x="125" y="491"/>
			<point x="69" y="506" type="curve"/>
			<point x="40" y="436" type="line"/>
			<point x="75" y="429"/>
			<point x="97" y="408"/>
			<point x="106" y="371" type="curve" smooth="yes"/>
			<point x="112" y="346"/>
			<point x="127" y="318"/>
			<point x="150" y="289" type="curve"/>
			<point x="150" y="284" type="line"/>
			<point x="93" y="255"/>
			<point x="64" y="209"/>
			<point x="64" y="148" type="curve" smooth="yes"/>
			<point x="64" y="46"/>
			<point x="132" y="-5"/>
			<point x="267" y="-5" type="curve" smooth="yes"/>
			<point x="397" y="-5"/>
			<point x="462" y="48"/>
			<point x="462" y="154" type="curve" smooth="yes"/>
			<point x="462" y="494" type="line"/>
			<point x="383" y="494" type="line"/>
			<point x="383" y="316" type="line"/>
		</contour>
		<contour>
			<point x="383" y="162" type="line" smooth="yes"/>
			<point x="383" y="97"/>
			<point x="344" y="65"/>
			<point x="265" y="65" type="curve" smooth="yes"/>
			<point x="181" y="65"/>
			<point x="139" y="94"/>
			<point x="139" y="152" type="curve" smooth="yes"/>
			<point x="139" y="213"/>
			<point x="179" y="243"/>
			<point x="260" y="243" type="curve" smooth="yes"/>
			<point x="383" y="243" type="line"/>
		</contour>
	</outline>
</glyph>
<glyph name="tte_wara.sm" format="2">
	<advance width="534"/>
	<anchor x="223" y="547" name="top"/>
	<note>
		uni118D2.sm
  </note>
	<outline>
		<contour>
			<point x="271" y="390" type="line" smooth="yes"/>
			<point x="158" y="390"/>
			<point x="50" y="306"/>
			<point x="50" y="191" type="curve" smooth="yes"/>
			<point x="50" y="70"/>
			<point x="155" y="-5"/>
			<point x="298" y="-5" type="curve" smooth="yes"/>
			<point x="375" y="-5"/>
			<point x="440" y="17"/>
			<point x="494" y="62" type="curve"/>
			<point x="446" y="116" type="line"/>
			<point x="403" y="84"/>
			<point x="356" y="67"/>
			<point x="299" y="67" type="curve" smooth="yes"/>
			<point x="194" y="67"/>
			<point x="138" y="122"/>
			<point x="138" y="195" type="curve" smooth="yes"/>
			<point x="138" y="267"/>
			<point x="189" y="318"/>
			<point x="291" y="318" type="curve" smooth="yes"/>
			<point x="376" y="318" type="line"/>
			<point x="376" y="501" type="line"/>
			<point x="288" y="501" type="line"/>
			<point x="288" y="390" type="line"/>
		</contour>
	</outline>
</glyph>
<glyph name="uc_wara.sm" format="2">
	<advance width="554"/>
	<anchor x="272" y="547" name="top"/>
	<note>
		uni118CF.sm
  </note>
	<outline>
		<contour>
			<point x="258" y="422" type="line"/>
			<point x="258" y="494" type="line"/>
			<point x="208" y="494" type="line" smooth="yes"/>
			<point x="99" y="494"/>
			<point x="40" y="441"/>
			<point x="40" y="338" type="curve" smooth="yes"/>
			<point x="40" y="243"/>
			<point x="104" y="190"/>
			<point x="217" y="190" type="curve" smooth="yes"/>
			<point x="304" y="190"/>
			<point x="364" y="216"/>
			<point x="395" y="269" type="curve"/>
			<point x="400" y="269" type="line"/>
			<point x="407" y="227"/>
			<point x="410" y="203"/>
			<point x="410" y="166" type="curve" smooth="yes"/>
			<point x="410" y="113"/>
			<point x="358" y="67"/>
			<point x="255" y="67" type="curve" smooth="yes"/>
			<point x="199" y="67"/>
			<point x="141" y="84"/>
			<point x="82" y="118" type="curve"/>
			<point x="50" y="51" type="line"/>
			<point x="113" y="14"/>
			<point x="183" y="-5"/>
			<point x="262" y="-5" type="curve" smooth="yes"/>
			<point x="413" y="-5"/>
			<point x="488" y="63"/>
			<point x="488" y="168" type="curve" smooth="yes"/>
			<point x="488" y="250"/>
			<point x="482" y="292"/>
			<point x="474" y="355" type="curve"/>
			<point x="501" y="387"/>
			<point x="514" y="406"/>
			<point x="514" y="436" type="curve" smooth="yes"/>
			<point x="514" y="477"/>
			<point x="491" y="499"/>
			<point x="451" y="499" type="curve" smooth="yes"/>
			<point x="403" y="499"/>
			<point x="382" y="467"/>
			<point x="382" y="422" type="curve" smooth="yes"/>
			<point x="382" y="382" type="line"/>
			<point x="357" y="306"/>
			<point x="303" y="262"/>
			<point x="219" y="262" type="curve" smooth="yes"/>
			<point x="159" y="262"/>
			<point x="128" y="297"/>
			<point x="128" y="336" type="curve" smooth="yes"/>
			<point x="128" y="387"/>
			<point x="153" y="422"/>
			<point x="200" y="422" type="curve" smooth="yes"/>
		</contour>
	</outline>
</glyph>
<glyph name="wi_wara.sm" format="2">
	<advance width="478"/>
	<anchor x="232" y="547" name="top"/>
	<note>
		uni118C2.sm
  </note>
	<outline>
		<contour>
			<point x="315" y="494" type="line" smooth="yes"/>
			<point x="187" y="494"/>
			<point x="123" y="434"/>
			<point x="123" y="314" type="curve" smooth="yes"/>
			<point x="123" y="266" type="line"/>
			<point x="30" y="266" type="line"/>
			<point x="30" y="194" type="line"/>
			<point x="123" y="194" type="line"/>
			<point x="123" y="0" type="line"/>
			<point x="211" y="0" type="line"/>
			<point x="211" y="194" type="line"/>
			<point x="423" y="194" type="line"/>
			<point x="423" y="266" type="line"/>
			<point x="211" y="266" type="line"/>
			<point x="211" y="326" type="line" smooth="yes"/>
			<point x="211" y="383"/>
			<point x="239" y="422"/>
			<point x="300" y="422" type="curve" smooth="yes"/>
			<point x="428" y="422" type="line"/>
			<point x="428" y="494" type="line"/>
		</contour>
	</outline>
</glyph>
<glyph name="yo_wara.sm" format="2">
	<advance width="629"/>
	<anchor x="317" y="547" name="top"/>
	<note>
		uni118C5.sm
  </note>
	<outline>
		<contour>
			<point x="470" y="122" type="line" smooth="yes"/>
			<point x="471" y="94"/>
			<point x="460" y="72"/>
			<point x="426" y="72" type="curve" smooth="yes"/>
			<point x="380" y="72" type="line"/>
			<point x="380" y="0" type="line"/>
			<point x="434" y="0" type="line" smooth="yes"/>
			<point x="521" y="0"/>
			<point x="555" y="47"/>
			<point x="551" y="132" type="curve" smooth="yes"/>
			<point x="541" y="355" type="line"/>
			<point x="566" y="379"/>
			<point x="579" y="407"/>
			<point x="579" y="438" type="curve" smooth="yes"/>
			<point x="579" y="481"/>
			<point x="559" y="502"/>
			<point x="518" y="502" type="curve" smooth="yes"/>
			<point x="473" y="502"/>
			<point x="451" y="470"/>
			<point x="451" y="405" type="curve"/>
			<point x="171" y="176" type="line"/>
			<point x="161" y="369" type="line" smooth="yes"/>
			<point x="159" y="398"/>
			<point x="170" y="422"/>
			<point x="205" y="422" type="curve" smooth="yes"/>
			<point x="249" y="422" type="line"/>
			<point x="249" y="494" type="line"/>
			<point x="195" y="494" type="line" smooth="yes"/>
			<point x="116" y="494"/>
			<point x="73" y="454"/>
			<point x="77" y="374" type="curve" smooth="yes"/>
			<point x="88" y="139" type="line"/>
			<point x="63" y="115"/>
			<point x="50" y="87"/>
			<point x="50" y="56" type="curve" smooth="yes"/>
			<point x="50" y="13"/>
			<point x="70" y="-8"/>
			<point x="111" y="-8" type="curve" smooth="yes"/>
			<point x="156" y="-8"/>
			<point x="178" y="24"/>
			<point x="178" y="89" type="curve"/>
			<point x="460" y="318" type="line"/>
		</contour>
	</outline>
</glyph>
<glyph name="yu_wara.sm" format="2">
	<advance width="512"/>
	<anchor x="260" y="547" name="top"/>
	<note>
		uni118C3.sm
  </note>
	<outline>
		<contour>
			<point x="443" y="100" type="line"/>
			<point x="387" y="78"/>
			<point x="331" y="67"/>
			<point x="274" y="67" type="curve" smooth="yes"/>
			<point x="183" y="67"/>
			<point x="136" y="102"/>
			<point x="138" y="159" type="curve" smooth="yes"/>
			<point x="148" y="494" type="line"/>
			<point x="60" y="494" type="line"/>
			<point x="50" y="149" type="line" smooth="yes"/>
			<point x="47" y="46"/>
			<point x="128" y="-5"/>
			<point x="279" y="-5" type="curve" smooth="yes"/>
			<point x="353" y="-5"/>
			<point x="417" y="6"/>
			<point x="472" y="28" type="curve"/>
		</contour>
	</outline>
</glyph>
<glyph name="yuj_wara.sm" format="2">
	<advance width="494"/>
	<anchor x="233" y="547" name="top"/>
	<note>
		uni118CE.sm
  </note>
	<outline>
		<contour>
			<point x="133" y="258" type="line"/>
			<point x="80" y="238"/>
			<point x="40" y="202"/>
			<point x="40" y="130" type="curve" smooth="yes"/>
			<point x="40" y="37"/>
			<point x="121" y="-5"/>
			<point x="274" y="-5" type="curve" smooth="yes"/>
			<point x="341" y="-5"/>
			<point x="397" y="5"/>
			<point x="454" y="26" type="curve"/>
			<point x="426" y="95" type="line"/>
			<point x="385" y="77"/>
			<point x="330" y="67"/>
			<point x="271" y="67" type="curve" smooth="yes"/>
			<point x="172" y="67"/>
			<point x="128" y="97"/>
			<point x="128" y="144" type="curve" smooth="yes"/>
			<point x="128" y="191"/>
			<point x="160" y="228"/>
			<point x="225" y="228" type="curve" smooth="yes"/>
			<point x="372" y="228" type="line"/>
			<point x="372" y="300" type="line"/>
			<point x="224" y="300" type="line" smooth="yes"/>
			<point x="168" y="300"/>
			<point x="140" y="326"/>
			<point x="140" y="367" type="curve" smooth="yes"/>
			<point x="140" y="402"/>
			<point x="176" y="434"/>
			<point x="258" y="434" type="curve" smooth="yes"/>
			<point x="309" y="434"/>
			<point x="361" y="422"/>
			<point x="404" y="409" type="curve"/>
			<point x="428" y="479" type="line"/>
			<point x="380" y="497"/>
			<point x="323" y="506"/>
			<point x="263" y="506" type="curve" smooth="yes"/>
			<point x="122" y="506"/>
			<point x="52" y="445"/>
			<point x="52" y="368" type="curve" smooth="yes"/>
			<point x="52" y="313"/>
			<point x="89" y="283"/>
			<point x="133" y="262" type="curve"/>
		</contour>
	</outline>
</glyph>
